<?xml version="1.0" standalone="no"?>
<!DOCTYPE svg PUBLIC "-//W3C//DTD SVG 20010904//EN"
 "http://www.w3.org/TR/2001/REC-SVG-20010904/DTD/svg10.dtd">
<svg version="1.0" xmlns="http://www.w3.org/2000/svg"
 width="700.000000pt" height="700.000000pt" viewBox="0 0 700.000000 700.000000"
 preserveAspectRatio="xMidYMid meet">
<metadata>
Created by potrace 1.14, written by Peter Selinger 2001-2017
</metadata>
<g transform="translate(0.000000,700.000000) scale(0.100000,-0.100000)"
fill="#000000" stroke="none">
<path d="M3290 6353 c-194 -15 -464 -66 -625 -117 -44 -14 -88 -26 -98 -26
-29 0 -204 -68 -336 -131 -347 -165 -695 -424 -917 -683 -323 -375 -546 -799
-665 -1262 -32 -129 -79 -389 -79 -446 0 -14 16 -5 63 33 101 82 223 160 356
226 69 35 128 63 131 63 4 0 -1 -30 -11 -67 -29 -116 -50 -291 -56 -459 -21
-580 171 -1149 542 -1609 92 -114 295 -312 404 -395 196 -148 483 -299 710
-373 75 -25 153 -48 174 -52 20 -4 37 -11 37 -15 0 -12 -132 -65 -232 -94
-187 -54 -431 -71 -600 -41 -47 8 -94 17 -104 21 -36 12 100 -68 206 -121 559
-280 1188 -374 1806 -270 636 107 1213 412 1636 866 402 430 647 903 757 1459
72 365 68 821 -10 1200 -56 268 -175 582 -309 815 -533 928 -1522 1495 -2585
1483 -82 -1 -170 -3 -195 -5z m1165 -723 c495 -212 921 -608 1175 -1093 128
-244 230 -560 255 -792 l6 -60 -30 53 c-45 76 -47 64 -4 -20 l38 -73 0 -210
c0 -231 -18 -376 -76 -607 -38 -152 -42 -163 -95 -226 -57 -70 -56 -91 1 -29
25 27 45 46 45 43 0 -20 -78 -203 -129 -303 -118 -231 -275 -446 -465 -635
-102 -103 -264 -240 -347 -295 l-39 -25 -122 36 c-150 45 -280 101 -384 165
l-78 48 -77 -28 c-254 -93 -585 -130 -864 -99 -364 42 -727 195 -1015 427 -89
72 -257 243 -321 328 -177 232 -313 549 -371 865 -30 164 -30 466 0 630 152
838 801 1471 1634 1596 86 13 111 21 179 60 177 102 432 199 652 249 261 58
288 57 432 -5z"/>
</g>
</svg>
