<svg id="Layer_1" xmlns="http://www.w3.org/2000/svg" viewBox="0 0 486 490"><style>.st0{fill:#5e6575}.st1{fill:#e1e0e6}.st2{fill:#fff}.st3{fill:#886fff}</style><path class="st0" d="M255.2 137c-28.4-28.4-74.9-28.4-103.3 0l-34.2 34.2c-28 28-28 73.4 0 101.3l125.7 125.7c10.8 10.8 28.5 10.8 39.3 0l98.5-98.5c10.2-10.2 10.2-26.7 0-36.8L255.2 137zm-115.4 58.6l37.4-37.4c15.6-15.6 41.2-15.6 56.8 0l23.9 23.9-94.1 94.1-23.9-23.9c-15.8-15.6-15.8-41.1-.1-56.7z"/><path class="st1" d="M266.3 438.7c-4 0-7.3-3.1-7.5-7.2-.2-4.1 3-7.6 7.2-7.8 2.2-.1 4.5-.2 6.7-.4 4.1-.3 7.8 2.7 8.1 6.8.3 4.1-2.7 7.8-6.8 8.1-2.4.2-4.9.4-7.3.5h-.4zm38.3-6c-3.3 0-6.3-2.2-7.2-5.5-1.1-4 1.3-8.1 5.2-9.2 26.7-7.3 51.1-21.5 70.6-41 19.6-19.6 33.8-44.1 41.1-71 1.1-4 5.2-6.4 9.2-5.3 4 1.1 6.4 5.2 5.3 9.2-8 29.4-23.5 56.2-45 77.7-21.3 21.3-48 36.8-77.2 44.8-.7.2-1.3.3-2 .3zm122.1-145.1h-.8c-4.1-.4-7.1-4.1-6.7-8.2.2-1.7.3-3.4.4-5 .3-4.1 3.9-7.3 8-6.9 4.1.3 7.2 3.9 6.9 8-.1 1.8-.3 3.6-.5 5.5-.2 3.7-3.5 6.6-7.3 6.6zM224.5 73.9h-.7c-3.7-.4-7.4-.6-11.1-.7-4.1-.1-7.4-3.6-7.3-7.7.1-4.1 3.6-7.4 7.7-7.3 4 .1 8.1.4 12.1.8 4.1.4 7.1 4.1 6.7 8.2-.3 3.8-3.5 6.7-7.4 6.7zM70 182.7c-.8 0-1.7-.1-2.5-.4-3.9-1.4-5.9-5.7-4.6-9.6 8.7-24.6 22.5-46.5 41-65 19.3-19.3 42.3-33.5 68.3-42.2 3.9-1.3 8.2.8 9.5 4.8 1.3 3.9-.8 8.2-4.8 9.5-23.8 7.9-44.8 20.8-62.5 38.5-16.9 16.9-29.5 36.9-37.5 59.4-.9 3.1-3.8 5-6.9 5zm-9.3 43.7h-.6c-4.1-.3-7.2-4-6.9-8.1.5-5.9 1.2-11.7 2.3-17.5.7-4.1 4.6-6.8 8.7-6.1 4.1.7 6.8 4.6 6.1 8.7-.9 5.3-1.6 10.7-2.1 16-.3 4-3.6 7-7.5 7zm200.6 256.2c-1.8 0-3.6 0-5.4-.1-4.1-.1-7.4-3.5-7.3-7.7.1-4.1 3.5-7.4 7.7-7.3 56.4 1.3 109-19.4 147.9-58.4 9.5-9.5 18.1-20 25.4-31.2 2.3-3.5 6.9-4.4 10.4-2.1 3.5 2.3 4.4 6.9 2.1 10.4-7.9 12-17.1 23.3-27.4 33.5-40.5 40.7-94.8 62.9-153.4 62.9zm194.6-131.8c-.9 0-1.8-.2-2.7-.5-3.9-1.5-5.8-5.8-4.3-9.7 7.5-19.4 12-39.9 13.3-61 .3-4.1 3.8-7.3 8-7 4.1.3 7.3 3.8 7 8-1.4 22.6-6.2 44.7-14.3 65.5-1.2 2.9-4 4.7-7 4.7z"/><path class="st1" d="M16.6 246c-4 0-7.3-3.2-7.5-7.2-2.3-61.8 20-119.3 62.7-162C117.4 31.1 181.5 8.6 247.5 15c4.1.4 7.1 4.1 6.7 8.2-.4 4.1-4.1 7.1-8.2 6.7-61.5-6-121.2 14.9-163.7 57.4-39.6 39.8-60.3 93.3-58.2 150.9.2 4.1-3.1 7.6-7.2 7.8h-.3z"/><path class="st2" d="M276.3 262.2c-9.1-9.1-23.7-9.2-32.8-.1-9.1 9.1-9.2 23.9-.1 33 6.8 6.8 17 8.2 25 5.2l17.5 17.5c3.6 3.6 9.3 3.6 12.9 0 3.6-3.6 3.5-9.3 0-12.9l-17.5-17.5c3.6-8.6 1.8-18.4-5-25.2z"/><path class="st3" d="M434.8 17.2c-17.9-18-47.2-18.1-65.2-.2-5.7 5.7-9.8 12.7-11.9 20.3-15.6-8.7-35.7-6.4-49 6.8-7.8 7.7-12.1 18.1-12.2 29.1 0 11 4.2 21.3 12 29.1 4.2 4.2 9 7.3 14.1 9.3L20.2 412c-2.4 2.3-3.7 5.5-3.7 8.8 0 3.3 1.3 6.5 3.6 8.9L69.2 479c2.4 2.5 5.7 3.7 8.9 3.7s6.4-1.2 8.8-3.6c4.9-4.9 4.9-12.8.1-17.7l-13.6-13.7 24.4-24 13.4 13.5c2.4 2.5 5.7 3.7 8.9 3.7s6.4-1.2 8.8-3.6c4.9-4.9 4.9-12.8.1-17.7l-40.2-40.5L340 129.5c2 4.9 5 9.4 8.9 13.3 7.7 7.8 18.1 12.1 29.1 12.1h.1c10.9 0 21.2-4.2 29-11.9 13.3-13.2 15.7-33.3 7.1-48.9 7.6-2.1 14.6-6.1 20.3-11.8 18.1-17.8 18.2-47.1.3-65.1zM326 61.8s0-.1 0 0c3-3.1 7.4-4.8 11.7-4.8h.1c4.3 0 8.4 1.7 11.4 4.8 6.3 6.3 6.2 16.6-.1 22.9-6.3 6.3-16.6 6.3-22.9-.1-3-3.1-4.9-7.1-4.9-11.4.1-4.4 1.7-8.4 4.7-11.4zM80.1 406l-24.4 24-9-9.1L71 396.8l9.1 9.2zm309.4-280.7c-3 3-7.1 4.7-11.4 4.7h-.1c-4.3 0-8.4-1.7-11.4-4.7-3-3.1-4.7-7.1-4.7-11.4 0-3.1.9-6.1 2.5-8.6l5-5c2.6-1.6 5.6-2.5 8.6-2.5 4.2 0 8.3 1.6 11.5 4.8 6.4 6.2 6.3 16.4 0 22.7zM417 64.6c-4 4-9.3 6.1-14.9 6.1s-10.9-2.2-14.9-6.2-6.1-9.3-6.1-14.9 2.2-10.9 6.2-14.9c4.1-4.1 9.5-6.1 14.9-6.1s10.9 2.1 15 6.2c8.1 8.3 8 21.7-.2 29.8z"/></svg>