<svg id="Layer_1" xmlns="http://www.w3.org/2000/svg" viewBox="0 0 486 490"><style>.st0{fill:#e1e0e6}.st1{fill:#5e6575}.st2{fill:#fff}.st3{fill:#886fff}</style><path class="st0" d="M55.5 348.6h17.6c6.4.5 11.4 6.2 10.8 12.8-.6 6.1-5.9 10.5-12 10.5H26.1c-11.9 0-12.4 23 0 23h101.5c6 0 11.2-4.3 12-10.2.8-6.1-3.2-11.4-8.7-12.8h-9.5c-5.8 0-11-4.1-11.9-9.8-1.1-7.2 4.5-13.5 11.5-13.5h130.9c6.4 0 11.7-5.3 11.7-11.7 0-6.4-5.3-11.7-11.7-11.7H200c-5.8 0-11-4.1-11.9-9.8-1.1-7.2 4.5-13.5 11.5-13.5h6.7c5.8 0 11-4.1 11.9-9.8 1.1-7.2-4.5-13.5-11.5-13.5h-70.2c-5.8 0-11 4.1-11.9 9.8-1.1 7.2 4.5 13.5 11.5 13.5h16.5-.9c6 .4 10.8 5.5 10.8 11.6s-4.8 11.2-10.8 11.6h.9-96.3c-6.4 0-11.7 5.3-11.7 11.7 0 6.3 4.9 11.3 10.9 11.8zm196.3-242.5S256.9 20 184.4 19c-47.7-.7-109.2 39.5-93.6 134.9 15.2 93.2-59.4 107-59.4 107s125.3 32.4 134.4-83.3c6.2-78 86-71.5 86-71.5z"/><path class="st1" d="M68.5 275.2c-21.7 0-38.4-4.2-39.7-4.5-4.5-1.2-7.7-5.3-7.5-10 .2-4.7 3.6-8.6 8.2-9.5.1 0 16.7-3.4 31.2-16.7 19.1-17.6 25.9-44.2 20.2-78.8-9.3-57.2 8.2-91.8 24.5-110.7 19.7-23 49.3-36.4 79.1-36 22.1.3 40 7.7 53.3 22 26.4 28.4 24.1 73.7 24 75.7-.2 2.7-1.4 5.2-3.4 7-2 1.8-4.7 2.6-7.3 2.4-.2 0-18.5-1.3-36.8 6.1-23.3 9.4-36.2 28.3-38.5 56.3-2.8 35-15.9 61.1-38.9 77.6-21.4 15.1-47.3 19.1-68.4 19.1zM67 255.1c18.2.2 40.7-2.8 58.3-15.4 18-12.8 28.2-34 30.5-62.8 2-25.5 11.4-45.5 28-59.6 19.5-16.6 44-20.5 57.9-21.2-.8-12.9-4.2-36.2-18.5-51.5-9.6-10.3-22.3-15.3-38.9-15.6-24-.4-47.8 10.5-63.7 28.9-19.5 22.6-26.4 55.2-19.9 94.4 4.7 29 3.9 69.5-27.2 97.5-2.2 1.9-4.3 3.7-6.5 5.3z"/><path id="XMLID_21_" class="st2" d="M293.8 462c0-29.9 3.9-62.2 22.1-71.3 18.2-9.1 86.5 16.3 90.2-8.9C409 362 422 317.1 422 317.1l44.4-4.6-29.9-54.5c-4.1-6.9-5.1-14.9-4.6-22.9 1-17.3 12.8-55.5 6.7-92.4-6.6-40-37.3-63.3-52-74.2-15-11.2-46.6-21.1-74.1-21.1-73.2 0-147.8 50.1-147.8 146.2 0 86.4 34.6 99.9 34.6 157.8 0 38.8-14.6 64.7-38.6 110.7h133.1z"/><path class="st1" d="M160.7 472c-1.6 0-3.1-.4-4.6-1.1-4.9-2.6-6.8-8.6-4.2-13.5l3.6-6.9c21.9-41.8 33.9-64.8 33.9-99.2 0-24.1-6.5-39.9-14-58.1-9.7-23.5-20.6-50.2-20.6-99.7 0-47.5 17.2-87.9 49.8-116.6 28.5-25.1 67.8-39.6 108-39.6 28 0 62.4 9.9 80.1 23.1 14.5 10.8 48.5 36.2 55.9 80.6 4.7 28.1-.3 56-3.8 76.4-1.3 7.5-2.5 13.9-2.7 18.3-.4 7.2.6 12.8 3.2 17.1.1.1.1.2.2.3l29.9 54.4c1.6 2.9 1.6 6.5.1 9.5-1.6 3-4.5 5-7.8 5.3l-37.6 3.9c-3.6 13-11.6 42.5-13.8 57-1.2 8.2-6.8 18.3-26.9 19.8-10.7.8-23.6-.7-36-2.3-11.2-1.4-28.2-3.4-32.8-1.2-14.4 7.2-16.6 42.2-16.6 62.4 0 5.5-4.5 10-10 10s-10-4.5-10-10c0-45.3 8.8-70.8 27.7-80.3 9.9-5 25.8-3 44.1-.8 11.5 1.4 23.4 2.8 32.1 2.2 3.8-.3 8.4-1.2 8.6-2.8 3-20.2 15.6-64.2 16.2-66 1.1-3.9 4.5-6.8 8.6-7.2l29.4-3.1-22.6-41.1c-4.7-7.9-6.6-17.2-5.9-28.4.3-5.5 1.6-12.5 3-20.6 3.3-19 7.9-44.9 3.8-69.6-6.1-36.4-34.5-57.7-48.1-67.9-15.9-11.8-47.7-19.2-68.1-19.2-35.3 0-69.9 12.6-94.7 34.6-28.2 24.9-43 60-43 101.6 0 45.5 9.7 69.2 19.1 92.1 8 19.4 15.5 37.7 15.5 65.7 0 39.3-14.4 66.8-36.2 108.5l-3.6 6.9c-2.1 3.6-5.6 5.5-9.2 5.5z"/><path class="st1" d="M438 365c-54.5 0-92.6-12.3-113.1-36.6-19-22.5-15.2-46.7-15.1-47.7.9-5.4 6.1-9.1 11.5-8.2 5.4.9 9.1 6 8.2 11.4-.1.8-2.2 16.8 10.9 31.9 16.4 19 50.2 29.1 97.5 29.1 5.5 0 10 4.5 10 10 .1 5.6-4.4 10.1-9.9 10.1z"/><path class="st0" d="M440.5 164.8c0-56.8-36.2-84.5-54-96.3-15.6-10.3-46.6-21.1-74.1-21.1-73.2 0-147.8 50.1-147.8 146.2 0 86.4 34.6 99.9 34.6 157.8 0 8.2-.7 15.8-1.9 23.1 56.9-40 46.8-95.3 46.8-95.3 106.2-32.9 168.9-69.7 196.4-114.4z"/><path class="st1" d="M197.4 384.4c-1.9 0-3.7-.5-5.3-1.5-3.4-2.2-5.2-6.2-4.5-10.1 1.2-7 1.8-14 1.8-21.5 0-24.1-6.5-39.9-14-58.1-9.7-23.5-20.6-50.2-20.6-99.7 0-47.5 17.2-87.9 49.8-116.6 28.5-25.1 67.8-39.6 108-39.6 29.6 0 62.5 11.5 79.6 22.8 38.8 25.7 58.4 60.9 58.4 104.6 0 1.8-.5 3.7-1.5 5.2-28.4 46.2-90.2 83.2-194.2 116.3.2 6.6-.2 16.5-3 27.9-4.6 18.8-16.8 46-48.7 68.5-1.8 1.2-3.8 1.8-5.8 1.8zM312.5 57.3c-35.3 0-69.9 12.6-94.7 34.6-28.2 24.9-43 60-43 101.6 0 45.5 9.7 69.2 19.1 92.1 7.9 19.3 15.4 37.6 15.5 65.5 31.3-33.1 25.2-69.7 25.1-70.2-.9-5 2.1-9.8 6.9-11.3 100.4-31.1 162.3-66.3 189.2-107.6-.8-35.8-17-63.6-49.4-85.1-14.4-9.5-43.3-19.6-68.7-19.6zm128 107.7z"/><path class="st1" d="M300 189c-8.3 0-15-6.7-15-15V42c0-8.3 6.7-15 15-15s15 6.7 15 15v132c0 8.3-6.7 15-15 15z"/><path class="st3" d="M305.9 282.3H293c-17.4 0-31.6-14.2-31.6-31.6v-50.5c0-17.4 14.2-31.6 31.6-31.6h12.9c17.4 0 31.6 14.2 31.6 31.6v50.5c.1 17.4-14.2 31.6-31.6 31.6z"/><path class="st1" d="M305.9 292.3H293c-23 0-41.6-18.7-41.6-41.6v-50.5c0-23 18.7-41.6 41.6-41.6h12.9c23 0 41.6 18.7 41.6 41.6v50.5c.1 23-18.6 41.6-41.6 41.6zM293 178.6c-11.9 0-21.6 9.7-21.6 21.6v50.5c0 11.9 9.7 21.6 21.6 21.6h12.9c11.9 0 21.6-9.7 21.6-21.6v-50.5c0-11.9-9.7-21.6-21.6-21.6H293z"/><path class="st2" d="M110.9 480l37.9-72.7 170.9 51.5 2.9 21.2z"/><path class="st1" d="M322.6 481.8c-4.6 0-8.7-3.2-9.8-7.8l-1.7-7.5L153.4 419l-33.9 57.8c-2.8 4.8-8.9 6.4-13.7 3.6-4.8-2.8-6.4-8.9-3.6-13.7l37.9-64.6c2.3-4 7.1-5.8 11.5-4.5l171 51.4c3.5 1 6.1 3.9 6.9 7.4l2.9 13.2c1.2 5.4-2.2 10.7-7.6 11.9-.7.2-1.5.3-2.2.3z"/><path class="st2" d="M281.4 380.6l69 9.5"/><path class="st1" d="M350.5 400.1c-.5 0-.9 0-1.4-.1l-69-9.5c-5.5-.8-9.3-5.8-8.5-11.3.8-5.5 5.8-9.3 11.3-8.5l69 9.5c5.5.8 9.3 5.8 8.5 11.3-.7 5-5 8.6-9.9 8.6z"/></svg>