<?xml version="1.0" encoding="utf-8"?>
<!-- Generator: Adobe Illustrator 21.0.2, SVG Export Plug-In . SVG Version: 6.00 Build 0)  -->
<svg version="1.1" id="US_UK_Download_on_the" xmlns="http://www.w3.org/2000/svg" xmlns:xlink="http://www.w3.org/1999/xlink"
	 x="0px" y="0px" viewBox="0 0 148.2 40" style="enable-background:new 0 0 148.2 40;" xml:space="preserve">
<style type="text/css">
	.st0{fill:#13667C;}
	.st1{fill:#21759B;}
	.st2{fill:#FFFFFF;}
	.st3{enable-background:new    ;}
</style>
<path class="st0" d="M142.9,40H5.2C2.3,40,0,37.9,0,35.3V4.7C0,2.1,2.3,0,5.2,0h137.7c2.9,0,5.3,2.1,5.3,4.7v30.5
	C148.2,37.9,145.8,40,142.9,40L142.9,40z"/>
<path class="st1" d="M147.1,35.3c0,2.1-1.9,3.8-4.2,3.8H5.2c-2.3,0-4.2-1.7-4.2-3.8V4.7c0-2.1,1.9-3.8,4.2-3.8h137.7
	c2.3,0,4.2,1.7,4.2,3.8V35.3L147.1,35.3z"/>
<g>
	<path class="st2" d="M7.4,19.5c0,4.4,2.6,8.2,6.3,10L8.4,15C7.8,16.3,7.4,17.9,7.4,19.5z"/>
	<path class="st2" d="M26.1,18.9c0-1.4-0.5-2.3-0.9-3.1c-0.6-0.9-1.1-1.7-1.1-2.6c0-1,0.8-2,1.9-2c0,0,0.1,0,0.1,0
		c-2-1.8-4.6-2.9-7.5-2.9c-3.9,0-7.3,2-9.3,5c0.3,0,0.5,0,0.7,0c1.2,0,3-0.1,3-0.1c0.6,0,0.7,0.8,0.1,0.9c0,0-0.6,0.1-1.3,0.1
		l4.1,12.1l2.4-7.3l-1.7-4.8c-0.6,0-1.2-0.1-1.2-0.1c-0.6,0-0.5-1,0.1-0.9c0,0,1.8,0.1,2.9,0.1c1.2,0,3-0.1,3-0.1
		c0.6,0,0.7,0.8,0.1,0.9c0,0-0.6,0.1-1.3,0.1l4,12l1.1-3.7C25.8,21,26.1,19.9,26.1,18.9z"/>
	<path class="st2" d="M18.8,20.5l-3.3,9.7c1,0.3,2.1,0.5,3.2,0.5c1.3,0,2.5-0.2,3.7-0.6c0,0-0.1-0.1-0.1-0.2L18.8,20.5z"/>
	<path class="st2" d="M28.4,14.1c0,0.4,0.1,0.7,0.1,1.1c0,1.1-0.2,2.4-0.8,4l-3.4,9.8c3.3-1.9,5.5-5.5,5.5-9.6
		C29.8,17.6,29.3,15.7,28.4,14.1z"/>
	<path class="st2" d="M18.6,6.5c-7.2,0-13,5.8-13,13c0,7.2,5.8,13,13,13c7.2,0,13-5.8,13-13C31.6,12.3,25.8,6.5,18.6,6.5z
		 M18.6,31.9c-6.8,0-12.4-5.6-12.4-12.4c0-6.8,5.6-12.4,12.4-12.4c6.8,0,12.4,5.6,12.4,12.4C31,26.3,25.4,31.9,18.6,31.9z"/>
</g>
<g class="st3">
	<path class="st2" d="M39.1,8.8c0.6-0.1,1.2-0.1,2-0.1c1.3,0,2.3,0.3,2.9,0.8c0.7,0.5,1,1.3,1,2.4c0,1.1-0.4,2-1,2.6
		c-0.7,0.6-1.8,1-3.2,1c-0.7,0-1.2,0-1.7-0.1V8.8z M40.1,14.8c0.2,0,0.6,0,0.9,0c2,0,3.1-1,3.1-2.9c0-1.6-0.9-2.6-2.9-2.6
		c-0.5,0-0.8,0-1.1,0.1V14.8z"/>
	<path class="st2" d="M48.4,15.5c-1.4,0-2.5-1-2.5-2.5c0-1.6,1.1-2.6,2.6-2.6c1.5,0,2.5,1,2.5,2.5C50.9,14.8,49.6,15.5,48.4,15.5
		L48.4,15.5z M48.4,14.9c0.9,0,1.6-0.8,1.6-1.9c0-0.8-0.4-1.8-1.5-1.8c-1.1,0-1.6,1-1.6,1.9C46.9,14.1,47.5,14.9,48.4,14.9
		L48.4,14.9z"/>
	<path class="st2" d="M52.4,10.6l0.7,2.4c0.1,0.5,0.3,1,0.4,1.5h0c0.1-0.5,0.3-1,0.5-1.5l0.8-2.5h0.8l0.8,2.4
		c0.2,0.6,0.3,1.1,0.5,1.6h0c0.1-0.5,0.2-1,0.4-1.6l0.7-2.4H59l-1.7,4.8h-0.9l-0.8-2.3c-0.2-0.5-0.3-1-0.5-1.6h0
		c-0.1,0.6-0.3,1.1-0.5,1.6l-0.8,2.3H53l-1.6-4.8H52.4z"/>
	<path class="st2" d="M59.9,11.9c0-0.5,0-0.9,0-1.3h0.8l0.1,0.8h0c0.3-0.4,0.9-0.9,1.7-0.9c0.7,0,1.8,0.4,1.8,2.1v2.9h-0.9v-2.8
		c0-0.8-0.3-1.4-1.2-1.4c-0.6,0-1.1,0.4-1.3,0.9c0,0.1-0.1,0.3-0.1,0.4v2.9h-0.9V11.9z"/>
	<path class="st2" d="M65.8,8.3h0.9v7.1h-0.9V8.3z"/>
	<path class="st2" d="M70.4,15.5c-1.4,0-2.5-1-2.5-2.5c0-1.6,1.1-2.6,2.6-2.6c1.5,0,2.5,1,2.5,2.5C73,14.8,71.7,15.5,70.4,15.5
		L70.4,15.5z M70.5,14.9c0.9,0,1.6-0.8,1.6-1.9c0-0.8-0.4-1.8-1.5-1.8c-1.1,0-1.6,1-1.6,1.9C68.9,14.1,69.6,14.9,70.5,14.9
		L70.5,14.9z"/>
	<path class="st2" d="M77.8,14.3c0,0.4,0,0.8,0.1,1.2h-0.8L77,14.8h0c-0.3,0.4-0.8,0.7-1.6,0.7c-1,0-1.6-0.7-1.6-1.4
		c0-1.2,1.1-1.8,3.1-1.8v-0.1c0-0.4-0.1-1.1-1.2-1.1c-0.5,0-1,0.1-1.4,0.4l-0.2-0.6c0.4-0.2,1.1-0.4,1.7-0.4c1.6,0,2,1,2,2V14.3z
		 M76.9,13c-1,0-2.2,0.1-2.2,1.1c0,0.6,0.4,0.8,0.9,0.8c0.7,0,1.1-0.4,1.3-0.8c0-0.1,0-0.2,0-0.3V13z"/>
	<path class="st2" d="M83.8,8.3v5.8c0,0.4,0,0.9,0,1.2H83l0-0.8h0c-0.3,0.5-0.9,0.9-1.7,0.9c-1.2,0-2.2-1-2.2-2.5
		c0-1.6,1.1-2.6,2.3-2.6c0.8,0,1.3,0.3,1.6,0.7h0V8.3H83.8z M82.9,12.6c0-0.1,0-0.3,0-0.4c-0.1-0.5-0.7-1-1.4-1
		c-1,0-1.5,0.8-1.5,1.9c0,1,0.5,1.8,1.5,1.8c0.6,0,1.2-0.4,1.4-1.1c0-0.1,0-0.2,0-0.4V12.6z"/>
	<path class="st2" d="M87.6,8.7h0.9v6h3.1v0.7h-4V8.7z"/>
	<path class="st2" d="M93,13.2c0,1.2,0.8,1.7,1.8,1.7c0.7,0,1.1-0.1,1.4-0.2l0.2,0.6c-0.3,0.1-0.9,0.3-1.7,0.3c-1.6,0-2.5-1-2.5-2.4
		c0-1.5,0.9-2.6,2.4-2.6c1.7,0,2.1,1.4,2.1,2.3c0,0.2,0,0.3,0,0.4H93z M95.8,12.5c0-0.6-0.2-1.4-1.3-1.4c-1,0-1.4,0.8-1.4,1.4H95.8z
		"/>
	<path class="st2" d="M101.5,14.3c0,0.4,0,0.8,0.1,1.2h-0.8l-0.1-0.6h0c-0.3,0.4-0.8,0.7-1.6,0.7c-1,0-1.6-0.7-1.6-1.4
		c0-1.2,1.1-1.8,3.1-1.8v-0.1c0-0.4-0.1-1.1-1.2-1.1c-0.5,0-1,0.1-1.4,0.4l-0.2-0.6c0.4-0.2,1.1-0.4,1.7-0.4c1.6,0,2,1,2,2V14.3z
		 M100.6,13c-1,0-2.2,0.1-2.2,1.1c0,0.6,0.4,0.8,0.9,0.8c0.7,0,1.1-0.4,1.3-0.8c0-0.1,0-0.2,0-0.3V13z"/>
	<path class="st2" d="M107.5,8.3v5.8c0,0.4,0,0.9,0,1.2h-0.8l0-0.8h0c-0.3,0.5-0.9,0.9-1.7,0.9c-1.2,0-2.2-1-2.2-2.5
		c0-1.6,1.1-2.6,2.3-2.6c0.8,0,1.3,0.3,1.6,0.7h0V8.3H107.5z M106.5,12.6c0-0.1,0-0.3,0-0.4c-0.1-0.5-0.7-1-1.4-1
		c-1,0-1.5,0.8-1.5,1.9c0,1,0.5,1.8,1.5,1.8c0.6,0,1.2-0.4,1.4-1.1c0-0.1,0-0.2,0-0.4V12.6z"/>
	<path class="st2" d="M111.3,8.8c0.4-0.1,1.1-0.1,1.7-0.1c0.9,0,1.5,0.1,2,0.5c0.4,0.3,0.6,0.7,0.6,1.2c0,0.7-0.5,1.2-1.2,1.5v0
		c0.7,0.1,1.5,0.7,1.5,1.7c0,0.6-0.2,1-0.6,1.3c-0.5,0.4-1.3,0.6-2.5,0.6c-0.6,0-1.1,0-1.4-0.1V8.8z M112.2,11.6h0.8
		c1,0,1.5-0.5,1.5-1.1c0-0.8-0.6-1.1-1.6-1.1c-0.4,0-0.7,0-0.8,0.1V11.6z M112.2,14.8c0.2,0,0.4,0,0.8,0c1,0,1.8-0.3,1.8-1.3
		c0-0.9-0.8-1.3-1.9-1.3h-0.8V14.8z"/>
	<path class="st2" d="M121.4,14.1c0,0.5,0,0.9,0,1.3h-0.8l-0.1-0.8h0c-0.2,0.4-0.8,0.9-1.7,0.9c-0.8,0-1.8-0.4-1.8-2.1v-2.8h0.9v2.7
		c0,0.9,0.3,1.5,1.2,1.5c0.6,0,1.1-0.4,1.2-0.8c0.1-0.1,0.1-0.3,0.1-0.4v-3h0.9V14.1z"/>
	<path class="st2" d="M123.4,9.8c-0.3,0-0.6-0.2-0.6-0.5c0-0.3,0.2-0.5,0.6-0.5c0.3,0,0.6,0.2,0.6,0.5C124,9.5,123.8,9.8,123.4,9.8
		L123.4,9.8z M122.9,15.4v-4.8h0.9v4.8H122.9z"/>
	<path class="st2" d="M125.4,8.3h0.9v7.1h-0.9V8.3z"/>
	<path class="st2" d="M132.4,8.3v5.8c0,0.4,0,0.9,0,1.2h-0.8l0-0.8h0c-0.3,0.5-0.9,0.9-1.7,0.9c-1.2,0-2.2-1-2.2-2.5
		c0-1.6,1.1-2.6,2.3-2.6c0.8,0,1.3,0.3,1.6,0.7h0V8.3H132.4z M131.5,12.6c0-0.1,0-0.3,0-0.4c-0.1-0.5-0.7-1-1.4-1
		c-1,0-1.5,0.8-1.5,1.9c0,1,0.5,1.8,1.5,1.8c0.6,0,1.2-0.4,1.4-1.1c0-0.1,0-0.2,0-0.4V12.6z"/>
	<path class="st2" d="M134.5,13.2c0,1.2,0.8,1.7,1.8,1.7c0.7,0,1.1-0.1,1.4-0.2l0.2,0.6c-0.3,0.1-0.9,0.3-1.7,0.3
		c-1.6,0-2.5-1-2.5-2.4c0-1.5,0.9-2.6,2.4-2.6c1.7,0,2.1,1.4,2.1,2.3c0,0.2,0,0.3,0,0.4H134.5z M137.2,12.5c0-0.6-0.2-1.4-1.3-1.4
		c-1,0-1.4,0.8-1.4,1.4H137.2z"/>
	<path class="st2" d="M139.3,12.1c0-0.6,0-1.1,0-1.5h0.8l0,0.9h0c0.2-0.6,0.8-1.1,1.4-1.1c0.1,0,0.2,0,0.3,0v0.8c-0.1,0-0.2,0-0.3,0
		c-0.7,0-1.1,0.5-1.3,1.1c0,0.1,0,0.3,0,0.4v2.6h-0.9V12.1z"/>
</g>
<g class="st3">
	<path class="st2" d="M40.9,30.5l-2.3-9.4h1.8l0.9,4.3c0.2,1.1,0.5,2.4,0.6,3.3h0c0.2-1,0.4-2.1,0.7-3.3l1-4.3h1.8l0.9,4.3
		c0.2,1.1,0.4,2.2,0.6,3.2h0c0.2-1,0.4-2.1,0.6-3.3l1-4.3h1.8l-2.5,9.4H46l-1-4.4c-0.2-1.1-0.4-2-0.5-3h0c-0.2,1-0.4,1.9-0.6,3
		l-1.1,4.4H40.9z"/>
	<path class="st2" d="M57.4,27c0,2.5-1.8,3.6-3.5,3.6c-1.9,0-3.4-1.3-3.4-3.5c0-2.2,1.5-3.6,3.5-3.6C56,23.5,57.4,25,57.4,27z
		 M52.2,27.1c0,1.3,0.6,2.3,1.7,2.3c1,0,1.7-1,1.7-2.3c0-1.1-0.5-2.3-1.7-2.3C52.7,24.8,52.2,26,52.2,27.1z"/>
	<path class="st2" d="M58.8,25.9c0-0.9,0-1.6-0.1-2.2h1.5l0.1,1.3h0.1c0.3-1,1.1-1.5,1.9-1.5c0.2,0,0.3,0,0.4,0v1.6
		c-0.1,0-0.3-0.1-0.5-0.1c-0.8,0-1.4,0.5-1.5,1.3c0,0.2-0.1,0.3-0.1,0.5v3.5h-1.7V25.9z"/>
	<path class="st2" d="M69.9,20.6v8c0,0.7,0,1.5,0.1,1.9h-1.5l-0.1-1.1h0c-0.4,0.8-1.2,1.2-2.2,1.2c-1.6,0-2.9-1.4-2.9-3.5
		c0-2.3,1.4-3.6,3.1-3.6c0.9,0,1.6,0.4,1.9,0.9h0v-3.9H69.9z M68.2,26.5c0-0.1,0-0.3,0-0.4c-0.2-0.7-0.7-1.2-1.5-1.2
		c-1.1,0-1.7,1-1.7,2.3c0,1.2,0.6,2.2,1.7,2.2c0.7,0,1.3-0.5,1.5-1.2c0-0.2,0.1-0.3,0.1-0.5V26.5z"/>
	<path class="st2" d="M71.8,26c0-0.9,0-1.6-0.1-2.3h1.5l0.1,1h0c0.5-0.8,1.3-1.2,2.3-1.2c1.6,0,2.9,1.3,2.9,3.5
		c0,2.5-1.6,3.7-3.1,3.7c-0.9,0-1.6-0.4-1.9-0.9h0v3.5h-1.7V26z M73.5,27.6c0,0.2,0,0.3,0.1,0.5c0.2,0.7,0.8,1.2,1.5,1.2
		c1.1,0,1.7-0.9,1.7-2.3c0-1.2-0.6-2.2-1.7-2.2c-0.7,0-1.4,0.5-1.5,1.3c0,0.1-0.1,0.3-0.1,0.4V27.6z"/>
	<path class="st2" d="M80,25.9c0-0.9,0-1.6-0.1-2.2h1.5l0.1,1.3h0.1c0.3-1,1.1-1.5,1.9-1.5c0.2,0,0.3,0,0.4,0v1.6
		c-0.1,0-0.3-0.1-0.5-0.1c-0.8,0-1.4,0.5-1.5,1.3c0,0.2-0.1,0.3-0.1,0.5v3.5H80V25.9z"/>
	<path class="st2" d="M86,27.6c0,1.2,1,1.8,2.1,1.8c0.8,0,1.4-0.1,1.9-0.3l0.3,1.2c-0.6,0.2-1.4,0.4-2.4,0.4c-2.2,0-3.5-1.4-3.5-3.4
		c0-1.9,1.1-3.7,3.3-3.7c2.2,0,2.9,1.8,2.9,3.3c0,0.3,0,0.6-0.1,0.7H86z M89,26.4c0-0.6-0.3-1.7-1.4-1.7c-1.1,0-1.5,1-1.6,1.7H89z"
		/>
	<path class="st2" d="M92,28.9c0.4,0.2,1.1,0.5,1.8,0.5c0.8,0,1.1-0.3,1.1-0.8c0-0.5-0.3-0.7-1.1-1c-1.3-0.5-1.9-1.2-1.9-2
		c0-1.2,1-2.1,2.6-2.1c0.8,0,1.4,0.2,1.8,0.4l-0.3,1.2c-0.3-0.2-0.8-0.4-1.4-0.4c-0.6,0-1,0.3-1,0.7c0,0.4,0.3,0.6,1.2,1
		c1.2,0.4,1.8,1.1,1.8,2.1c0,1.2-1,2.1-2.8,2.1c-0.8,0-1.6-0.2-2.1-0.5L92,28.9z"/>
	<path class="st2" d="M97.8,28.9c0.4,0.2,1.1,0.5,1.8,0.5c0.8,0,1.1-0.3,1.1-0.8c0-0.5-0.3-0.7-1.1-1c-1.3-0.5-1.9-1.2-1.9-2
		c0-1.2,1-2.1,2.6-2.1c0.8,0,1.4,0.2,1.8,0.4l-0.3,1.2c-0.3-0.2-0.8-0.4-1.4-0.4c-0.6,0-1,0.3-1,0.7c0,0.4,0.3,0.6,1.2,1
		c1.2,0.4,1.8,1.1,1.8,2.1c0,1.2-1,2.1-2.8,2.1c-0.8,0-1.6-0.2-2.1-0.5L97.8,28.9z"/>
	<path class="st2" d="M106.6,26c0-0.9,0-1.6-0.1-2.3h1.5l0.1,1h0c0.5-0.8,1.3-1.2,2.3-1.2c1.6,0,2.9,1.3,2.9,3.5
		c0,2.5-1.6,3.7-3.1,3.7c-0.9,0-1.6-0.4-1.9-0.9h0v3.5h-1.7V26z M108.4,27.6c0,0.2,0,0.3,0.1,0.5c0.2,0.7,0.8,1.2,1.5,1.2
		c1.1,0,1.7-0.9,1.7-2.3c0-1.2-0.6-2.2-1.7-2.2c-0.7,0-1.4,0.5-1.5,1.3c0,0.1-0.1,0.3-0.1,0.4V27.6z"/>
	<path class="st2" d="M114.8,20.6h1.7v9.9h-1.7V20.6z"/>
	<path class="st2" d="M124.5,28.5c0,0.8,0,1.5,0.1,2h-1.5l-0.1-1h0c-0.3,0.5-1,1.2-2.2,1.2c-1.2,0-2.4-0.7-2.4-3v-4h1.7v3.7
		c0,1.1,0.4,1.9,1.3,1.9c0.7,0,1.1-0.5,1.3-0.9c0.1-0.2,0.1-0.3,0.1-0.5v-4.1h1.7V28.5z"/>
	<path class="st2" d="M132.6,23.7c0,0.5-0.1,1-0.1,2v3.9c0,1.4-0.3,2.5-1,3.1c-0.7,0.6-1.7,0.8-2.6,0.8c-0.9,0-1.8-0.2-2.4-0.5
		l0.4-1.3c0.4,0.3,1.2,0.5,2,0.5c1.1,0,2-0.6,2-2.1v-0.6h0c-0.4,0.6-1.1,1-2,1c-1.7,0-2.9-1.4-2.9-3.3c0-2.2,1.5-3.6,3.1-3.6
		c1,0,1.7,0.5,2,1.1h0l0.1-0.9H132.6z M130.8,26.4c0-0.2,0-0.3-0.1-0.5c-0.2-0.6-0.7-1.1-1.4-1.1c-1,0-1.7,0.8-1.7,2.2
		c0,1.2,0.6,2.1,1.7,2.1c0.6,0,1.2-0.4,1.4-1c0-0.2,0.1-0.4,0.1-0.6V26.4z"/>
	<path class="st2" d="M136.2,21.8c0,0.5-0.4,0.9-1,0.9c-0.6,0-1-0.4-1-0.9c0-0.5,0.4-0.9,1-0.9C135.8,20.8,136.2,21.2,136.2,21.8z
		 M134.3,30.5v-6.8h1.7v6.8H134.3z"/>
	<path class="st2" d="M137.9,25.7c0-0.8,0-1.4-0.1-2h1.5l0.1,1h0c0.3-0.5,1-1.2,2.2-1.2c1.2,0,2.4,0.8,2.4,2.9v4h-1.7v-3.9
		c0-1-0.4-1.7-1.3-1.7c-0.7,0-1.2,0.5-1.3,1c-0.1,0.2-0.1,0.4-0.1,0.6v4h-1.7V25.7z"/>
</g>
</svg>
