<?xml version="1.0" encoding="UTF-8"?>
<svg width="378px" height="211px" viewBox="0 0 378 211" version="1.1" xmlns="http://www.w3.org/2000/svg" xmlns:xlink="http://www.w3.org/1999/xlink">
    <!-- Generator: Sketch 50.2 (55047) - http://www.bohemiancoding.com/sketch -->
    <title>Diagram_BOFU</title>
    <desc>Created with Sketch.</desc>
    <defs></defs>
    <g id="Page-1" stroke="none" stroke-width="1" fill="none" fill-rule="evenodd">
        <g id="homepage-v2-funnel-slider-scroll-copy-3" transform="translate(-202.000000, -2433.000000)">
            <g id="TOFU-Copy-2" transform="translate(138.000000, 2343.000000)">
                <g id="Diagram_BOFU" transform="translate(64.000000, 90.000000)">
                    <rect id="Rectangle-4" fill="#D8D8D8" x="61" y="0" width="317" height="42"></rect>
                    <path d="M3.96,24 L3.96,14.244 L0.45,14.244 L0.45,11.994 L10.026,11.994 L10.026,14.244 L6.534,14.244 L6.534,24 L3.96,24 Z M11.656,18.006 C11.656,14.388 14.302,11.796 17.92,11.796 C21.556,11.796 24.202,14.388 24.202,18.006 C24.202,21.624 21.556,24.216 17.92,24.216 C14.302,24.216 11.656,21.624 11.656,18.006 Z M21.574,18.006 C21.574,15.756 20.134,14.064 17.92,14.064 C15.706,14.064 14.284,15.756 14.284,18.006 C14.284,20.238 15.706,21.948 17.92,21.948 C20.134,21.948 21.574,20.238 21.574,18.006 Z M27.002,24 L27.002,11.994 L32.618,11.994 C35.228,11.994 36.65,13.758 36.65,15.864 C36.65,17.952 35.21,19.734 32.618,19.734 L29.558,19.734 L29.558,24 L27.002,24 Z M34.04,15.864 C34.04,14.856 33.284,14.244 32.276,14.244 L29.558,14.244 L29.558,17.484 L32.276,17.484 C33.284,17.484 34.04,16.854 34.04,15.864 Z" id="TOP" fill="#D8D8D8"></path>
                    <path d="M11.628,111 L11.628,102.594 L8.244,111 L7.128,111 L3.744,102.594 L3.744,111 L1.188,111 L1.188,98.994 L4.77,98.994 L7.686,106.248 L10.602,98.994 L14.202,98.994 L14.202,111 L11.628,111 Z M17.578,111 L17.578,98.994 L20.134,98.994 L20.134,111 L17.578,111 Z M23.51,111 L23.51,98.994 L28.244,98.994 C32.006,98.994 34.616,101.388 34.616,105.006 C34.616,108.624 32.006,111 28.244,111 L23.51,111 Z M26.066,108.75 L28.244,108.75 C30.62,108.75 32.006,107.04 32.006,105.006 C32.006,102.882 30.71,101.244 28.244,101.244 L26.066,101.244 L26.066,108.75 Z M37.434,111 L37.434,98.994 L42.168,98.994 C45.93,98.994 48.54,101.388 48.54,105.006 C48.54,108.624 45.93,111 42.168,111 L37.434,111 Z M39.99,108.75 L42.168,108.75 C44.544,108.75 45.93,107.04 45.93,105.006 C45.93,102.882 44.634,101.244 42.168,101.244 L39.99,101.244 L39.99,108.75 Z M51.358,111 L51.358,98.994 L53.914,98.994 L53.914,108.75 L58.99,108.75 L58.99,111 L51.358,111 Z M61.772,111 L61.772,98.994 L70.268,98.994 L70.268,101.244 L64.328,101.244 L64.328,103.782 L70.142,103.782 L70.142,106.032 L64.328,106.032 L64.328,108.75 L70.268,108.75 L70.268,111 L61.772,111 Z" id="MIDDLE" fill="#D8D8D8"></path>
                    <path d="M49.188,198 L49.188,185.994 L55.506,185.994 C57.792,185.994 58.962,187.452 58.962,189.054 C58.962,190.566 58.026,191.574 56.892,191.808 C58.17,192.006 59.196,193.248 59.196,194.76 C59.196,196.56 57.99,198 55.704,198 L49.188,198 Z M51.744,190.8 L54.948,190.8 C55.812,190.8 56.352,190.26 56.352,189.504 C56.352,188.748 55.812,188.19 54.948,188.19 L51.744,188.19 L51.744,190.8 Z M51.744,195.786 L55.038,195.786 C56.01,195.786 56.586,195.264 56.586,194.4 C56.586,193.644 56.046,192.996 55.038,192.996 L51.744,192.996 L51.744,195.786 Z M61.546,192.006 C61.546,188.388 64.192,185.796 67.81,185.796 C71.446,185.796 74.092,188.388 74.092,192.006 C74.092,195.624 71.446,198.216 67.81,198.216 C64.192,198.216 61.546,195.624 61.546,192.006 Z M71.464,192.006 C71.464,189.756 70.024,188.064 67.81,188.064 C65.596,188.064 64.174,189.756 64.174,192.006 C64.174,194.238 65.596,195.948 67.81,195.948 C70.024,195.948 71.464,194.238 71.464,192.006 Z M79.232,198 L79.232,188.244 L75.722,188.244 L75.722,185.994 L85.298,185.994 L85.298,188.244 L81.806,188.244 L81.806,198 L79.232,198 Z M90.708,198 L90.708,188.244 L87.198,188.244 L87.198,185.994 L96.774,185.994 L96.774,188.244 L93.282,188.244 L93.282,198 L90.708,198 Z M98.404,192.006 C98.404,188.388 101.05,185.796 104.668,185.796 C108.304,185.796 110.95,188.388 110.95,192.006 C110.95,195.624 108.304,198.216 104.668,198.216 C101.05,198.216 98.404,195.624 98.404,192.006 Z M108.322,192.006 C108.322,189.756 106.882,188.064 104.668,188.064 C102.454,188.064 101.032,189.756 101.032,192.006 C101.032,194.238 102.454,195.948 104.668,195.948 C106.882,195.948 108.322,194.238 108.322,192.006 Z M124.19,198 L124.19,189.594 L120.806,198 L119.69,198 L116.306,189.594 L116.306,198 L113.75,198 L113.75,185.994 L117.332,185.994 L120.248,193.248 L123.164,185.994 L126.764,185.994 L126.764,198 L124.19,198 Z" id="BOTTOM" fill="#886FFF"></path>
                    <rect id="Rectangle-4-Copy" fill="#D8D8D8" x="93" y="84" width="254" height="42"></rect>
                    <polygon id="Rectangle-4-Copy-2" fill="#886FFF" points="156 169 283 169 313 190 283 211 156 211"></polygon>
                </g>
            </g>
        </g>
    </g>
</svg>