<?xml version="1.0" encoding="UTF-8"?>
<svg width="399px" height="211px" viewBox="0 0 399 211" version="1.1" xmlns="http://www.w3.org/2000/svg" xmlns:xlink="http://www.w3.org/1999/xlink">
    <!-- Generator: Sketch 50.2 (55047) - http://www.bohemiancoding.com/sketch -->
    <title>Diagram_MOFU</title>
    <desc>Created with Sketch.</desc>
    <defs></defs>
    <g id="Page-1" stroke="none" stroke-width="1" fill="none" fill-rule="evenodd">
        <g id="homepage-v2-funnel-slider-scroll-copy-3" transform="translate(-824.000000, -1724.000000)">
            <g id="TOFU-Copy" transform="translate(138.000000, 1627.000000)">
                <g id="Diagram_MOFU" transform="translate(686.000000, 97.000000)">
                    <polygon id="Rectangle-4" fill="#D8D8D8" points="0 0 317 0 317 21 317 42 0 42"></polygon>
                    <rect id="Rectangle-4-Copy-2" fill="#D8D8D8" x="95" y="169" width="127" height="42"></rect>
                    <path d="M342.96,24 L342.96,14.244 L339.45,14.244 L339.45,11.994 L349.026,11.994 L349.026,14.244 L345.534,14.244 L345.534,24 L342.96,24 Z M350.656,18.006 C350.656,14.388 353.302,11.796 356.92,11.796 C360.556,11.796 363.202,14.388 363.202,18.006 C363.202,21.624 360.556,24.216 356.92,24.216 C353.302,24.216 350.656,21.624 350.656,18.006 Z M360.574,18.006 C360.574,15.756 359.134,14.064 356.92,14.064 C354.706,14.064 353.284,15.756 353.284,18.006 C353.284,20.238 354.706,21.948 356.92,21.948 C359.134,21.948 360.574,20.238 360.574,18.006 Z M366.002,24 L366.002,11.994 L371.618,11.994 C374.228,11.994 375.65,13.758 375.65,15.864 C375.65,17.952 374.21,19.734 371.618,19.734 L368.558,19.734 L368.558,24 L366.002,24 Z M373.04,15.864 C373.04,14.856 372.284,14.244 371.276,14.244 L368.558,14.244 L368.558,17.484 L371.276,17.484 C372.284,17.484 373.04,16.854 373.04,15.864 Z" id="TOP-Copy" fill="#D8D8D8"></path>
                    <path d="M339.628,111 L339.628,102.594 L336.244,111 L335.128,111 L331.744,102.594 L331.744,111 L329.188,111 L329.188,98.994 L332.77,98.994 L335.686,106.248 L338.602,98.994 L342.202,98.994 L342.202,111 L339.628,111 Z M345.578,111 L345.578,98.994 L348.134,98.994 L348.134,111 L345.578,111 Z M351.51,111 L351.51,98.994 L356.244,98.994 C360.006,98.994 362.616,101.388 362.616,105.006 C362.616,108.624 360.006,111 356.244,111 L351.51,111 Z M354.066,108.75 L356.244,108.75 C358.62,108.75 360.006,107.04 360.006,105.006 C360.006,102.882 358.71,101.244 356.244,101.244 L354.066,101.244 L354.066,108.75 Z M365.434,111 L365.434,98.994 L370.168,98.994 C373.93,98.994 376.54,101.388 376.54,105.006 C376.54,108.624 373.93,111 370.168,111 L365.434,111 Z M367.99,108.75 L370.168,108.75 C372.544,108.75 373.93,107.04 373.93,105.006 C373.93,102.882 372.634,101.244 370.168,101.244 L367.99,101.244 L367.99,108.75 Z M379.358,111 L379.358,98.994 L381.914,98.994 L381.914,108.75 L386.99,108.75 L386.99,111 L379.358,111 Z M389.772,111 L389.772,98.994 L398.268,98.994 L398.268,101.244 L392.328,101.244 L392.328,103.782 L398.142,103.782 L398.142,106.032 L392.328,106.032 L392.328,108.75 L398.268,108.75 L398.268,111 L389.772,111 Z" id="MIDDLE-Copy-2" fill="#886FFF"></path>
                    <path d="M247.188,198 L247.188,185.994 L253.506,185.994 C255.792,185.994 256.962,187.452 256.962,189.054 C256.962,190.566 256.026,191.574 254.892,191.808 C256.17,192.006 257.196,193.248 257.196,194.76 C257.196,196.56 255.99,198 253.704,198 L247.188,198 Z M249.744,190.8 L252.948,190.8 C253.812,190.8 254.352,190.26 254.352,189.504 C254.352,188.748 253.812,188.19 252.948,188.19 L249.744,188.19 L249.744,190.8 Z M249.744,195.786 L253.038,195.786 C254.01,195.786 254.586,195.264 254.586,194.4 C254.586,193.644 254.046,192.996 253.038,192.996 L249.744,192.996 L249.744,195.786 Z M259.546,192.006 C259.546,188.388 262.192,185.796 265.81,185.796 C269.446,185.796 272.092,188.388 272.092,192.006 C272.092,195.624 269.446,198.216 265.81,198.216 C262.192,198.216 259.546,195.624 259.546,192.006 Z M269.464,192.006 C269.464,189.756 268.024,188.064 265.81,188.064 C263.596,188.064 262.174,189.756 262.174,192.006 C262.174,194.238 263.596,195.948 265.81,195.948 C268.024,195.948 269.464,194.238 269.464,192.006 Z M277.232,198 L277.232,188.244 L273.722,188.244 L273.722,185.994 L283.298,185.994 L283.298,188.244 L279.806,188.244 L279.806,198 L277.232,198 Z M288.708,198 L288.708,188.244 L285.198,188.244 L285.198,185.994 L294.774,185.994 L294.774,188.244 L291.282,188.244 L291.282,198 L288.708,198 Z M296.404,192.006 C296.404,188.388 299.05,185.796 302.668,185.796 C306.304,185.796 308.95,188.388 308.95,192.006 C308.95,195.624 306.304,198.216 302.668,198.216 C299.05,198.216 296.404,195.624 296.404,192.006 Z M306.322,192.006 C306.322,189.756 304.882,188.064 302.668,188.064 C300.454,188.064 299.032,189.756 299.032,192.006 C299.032,194.238 300.454,195.948 302.668,195.948 C304.882,195.948 306.322,194.238 306.322,192.006 Z M322.19,198 L322.19,189.594 L318.806,198 L317.69,198 L314.306,189.594 L314.306,198 L311.75,198 L311.75,185.994 L315.332,185.994 L318.248,193.248 L321.164,185.994 L324.764,185.994 L324.764,198 L322.19,198 Z" id="BOTTOM-Copy" fill="#D8D8D8"></path>
                    <polygon id="Rectangle-4-Copy-4" fill="#886FFF" transform="translate(158.500000, 105.000000) scale(-1, 1) translate(-158.500000, -105.000000) " points="19 84 273 84 298 105 273 126 19 126"></polygon>
                    <rect id="Rectangle-4-Copy-3" fill="#D8D8D8" x="95" y="169" width="127" height="42"></rect>
                </g>
            </g>
        </g>
    </g>
</svg>