<?xml version="1.0" encoding="UTF-8"?>
<svg width="47px" height="36px" viewBox="0 0 47 36" version="1.1" xmlns="http://www.w3.org/2000/svg" xmlns:xlink="http://www.w3.org/1999/xlink">
    <!-- Generator: Sketch 50.2 (55047) - http://www.bohemiancoding.com/sketch -->
    <title>ico-training</title>
    <desc>Created with Sketch.</desc>
    <defs></defs>
    <g id="Page-1" stroke="none" stroke-width="1" fill="none" fill-rule="evenodd">
        <g id="homepage-v2-funnel-slider-scroll" transform="translate(-658.000000, -4139.000000)" fill="#FFFFFF">
            <path d="M666.703,4166.861 C666.703,4171.135 673.004,4174.361 681.402,4174.361 C689.8,4174.361 696.101,4171.135 696.101,4166.861 L696.101,4155.31 L702.402,4152.385 L702.402,4168.959 C702.402,4169.635 702.925,4170.158 703.601,4170.158 C704.277,4170.158 704.8,4169.635 704.8,4168.959 L704.8,4150.514 C704.8,4150.514 704.8,4150.514 704.8,4150.514 C704.8,4150.439 704.8,4150.365 704.8,4150.365 C704.8,4150.365 704.8,4150.291 704.8,4150.291 C704.8,4150.291 704.8,4150.217 704.8,4150.217 C704.652,4149.842 704.425,4149.615 704.05,4149.467 L681.925,4139.111 C681.625,4138.963 681.25,4138.963 680.949,4139.111 L658.675,4149.389 C658.226,4149.615 658,4149.99 658,4150.439 C658,4150.889 658.3,4151.338 658.675,4151.49 L666.625,4155.166 L666.625,4166.861 L666.703,4166.861 Z M681.402,4141.514 L700.754,4150.514 L681.402,4159.514 L662.05,4150.514 L681.402,4141.514 Z M669.101,4166.861 L669.101,4156.361 L680.879,4161.912 C681.027,4161.986 681.179,4161.986 681.402,4161.986 C681.629,4161.986 681.777,4161.986 681.925,4161.912 L693.777,4156.435 L693.777,4166.935 C693.777,4169.334 688.675,4172.037 681.476,4172.037 C674.277,4172.037 669.101,4169.264 669.101,4166.861 Z" id="ico-training"></path>
        </g>
    </g>
</svg>