<?xml version="1.0" encoding="UTF-8"?>
<svg width="35px" height="38px" viewBox="0 0 35 38" version="1.1" xmlns="http://www.w3.org/2000/svg" xmlns:xlink="http://www.w3.org/1999/xlink">
    <!-- Generator: Sketch 50.2 (55047) - http://www.bohemiancoding.com/sketch -->
    <title>ico_chat</title>
    <desc>Created with Sketch.</desc>
    <defs></defs>
    <g id="Page-1" stroke="none" stroke-width="1" fill="none" fill-rule="evenodd">
        <g id="homepage-v2-funnel-slider-scroll" transform="translate(-1002.000000, -4142.000000)" fill="#FFFFFF">
            <g id="CUstomer-Support-banner" transform="translate(0.000000, 3591.000000)">
                <g id="Group-3-Copy-3" transform="translate(726.000000, 551.000000)">
                    <g id="ico_chat" transform="translate(276.000000, 0.000000)">
                        <path d="M29.75,0 L5.25,0 C2.275,0 0,2.47 0,5.7 L0,24.7 C0,27.93 2.275,30.4 5.25,30.4 L5.25,38 L19.95,30.4 L29.75,30.4 C32.725,30.4 35,27.93 35,24.7 L35,5.7 C35,2.47 32.725,0 29.75,0 Z M31.5,24.7 C31.5,25.84 30.8,26.6 29.75,26.6 L19.25,26.6 L8.75,31.92 L8.75,26.6 L5.25,26.6 C4.2,26.6 3.5,25.84 3.5,24.7 L3.5,5.7 C3.5,4.56 4.2,3.8 5.25,3.8 L29.75,3.8 C30.8,3.8 31.5,4.56 31.5,5.7 L31.5,24.7 Z" id="Fill-1"></path>
                        <polygon id="Fill-2" points="7 13.0285714 28 13.0285714 28 9.77142857 7 9.77142857"></polygon>
                        <polygon id="Fill-3" points="7 20.6285714 28 20.6285714 28 17.3714286 7 17.3714286"></polygon>
                    </g>
                </g>
            </g>
        </g>
    </g>
</svg>