<?xml version="1.0" encoding="UTF-8"?>
<svg width="41px" height="41px" viewBox="0 0 41 41" version="1.1" xmlns="http://www.w3.org/2000/svg" xmlns:xlink="http://www.w3.org/1999/xlink">
    <!-- Generator: Sketch 50.2 (55047) - http://www.bohemiancoding.com/sketch -->
    <title>ico_heart</title>
    <desc>Created with Sketch.</desc>
    <defs></defs>
    <g id="Page-1" stroke="none" stroke-width="1" fill="none" fill-rule="evenodd">
        <g id="homepage-v2-funnel-slider-scroll" transform="translate(-305.000000, -4140.000000)" fill="#FFFFFF">
            <g id="CUstomer-Support-banner" transform="translate(0.000000, 3591.000000)">
                <g id="ico_heart" transform="translate(305.000000, 549.000000)">
                    <path d="M37.048023,3.97555128 C32.4239906,-1.01353633 24.9254514,-1.01353633 20.29875,3.97555128 C15.6747176,-1.01353633 8.17617842,-1.01353633 3.54947701,3.97555128 C-1.07388817,8.96463889 -1.07388817,17.055168 3.54947701,22.0471353 L20.29875,40.1151197 L37.048023,22.0442556 C41.6713882,17.055168 41.6713882,8.96463889 37.048023,3.97555128 Z M19.6208255,28.573985 C14.3689122,28.573985 10.1125337,23.9815766 10.1125337,18.3150386 C10.1125337,12.6485006 14.3689122,8.0560922 19.6208255,8.0560922 C24.8727388,8.0560922 29.1291173,12.6485006 29.1291173,18.3150386 C29.1291173,23.9815766 24.8727388,28.573985 19.6208255,28.573985 Z" id="Fill-1"></path>
                    <path d="M20.2662216,18.5414553 L20.2662216,13.2823955 C20.2662216,12.8353214 19.9299284,12.4724786 19.515567,12.4724786 C19.1012057,12.4724786 18.7649124,12.8353214 18.7649124,13.2823955 L18.7649124,18.8791007 C18.7649124,19.0929187 18.8436477,19.3009773 18.9844372,19.4528817 L21.4992969,22.1662831 C21.6454244,22.3239469 21.8382592,22.4024188 22.031094,22.4024188 C22.2239289,22.4024188 22.4140947,22.3239469 22.5628911,22.1662831 C22.8544787,21.8516754 22.8544787,21.3369282 22.5628911,21.0216006 L20.2662216,18.5414553 Z" id="Fill-2"></path>
                </g>
            </g>
        </g>
    </g>
</svg>