<svg width="343" height="293" viewBox="0 0 343 293" xmlns="http://www.w3.org/2000/svg" xmlns:xlink="http://www.w3.org/1999/xlink"><title>features-crm-contact-diagram</title><defs><path d="M0 45.583c.003.326.064.669.184 1.03.166.618.531 1.138 1.097 1.562a3.088 3.088 0 0 0 1.894.635h43.622c1.596 0 2.61-.717 3.041-2.148.432-1.433 0-2.587-1.296-3.466-3.956-2.538-8.791-4.425-14.507-5.661 2.792-3.417 4.769-7.566 5.932-12.447.3-1.757.482-3.742.549-5.955.066-2.212-.3-4.637-1.097-7.272-.798-2.636-1.911-4.881-3.34-6.736C33.319 1.708 29.63 0 25.01 0c-4.62 0-8.325 1.708-11.117 5.125-1.396 1.823-2.493 4.068-3.29 6.736-.798 2.668-1.18 5.092-1.147 7.272.033 2.18.216 4.166.548 5.955 1.164 4.881 3.141 9.03 5.933 12.447C10.22 38.77 5.386 40.658 1.43 43.196c-.945.641-1.422 1.42-1.43 2.337v.05zM12.797 16.4c-.433 3.352-.167 6.736.798 10.152.964 3.417 2.559 6.443 4.786 9.079l.498.683c1.861 2.116 3.905 3.173 6.132 3.173 2.226 0 4.27-1.057 6.132-3.173l.449-.683a24.467 24.467 0 0 0 4.786-9.079c.964-3.384 1.23-6.767.797-10.152-.465-3.677-1.728-6.817-3.788-9.42-2.062-2.603-4.853-3.905-8.376-3.905-3.523 0-6.315 1.302-8.375 3.905-2.061 2.603-3.34 5.743-3.839 9.42zM3.175 45.783h43.622c-3.622-2.376-8.06-4.132-13.31-5.271l-3.94-.781c-1.495.976-3.008 1.464-4.536 1.464-1.529 0-3.058-.488-4.586-1.464l-3.889.78c-5.318 1.14-9.771 2.896-13.36 5.272z" id="a"/></defs><g fill="none" fill-rule="evenodd"><circle fill="#886FFF" cx="101" cy="15" r="5"/><circle fill="#886FFF" cx="24" cy="189" r="5"/><circle fill="#886FFF" cx="322" cy="55" r="5"/><ellipse fill="#886FFF" cx="19" cy="153" rx="8" ry="8"/><ellipse fill="#886FFF" cx="93" cy="41" rx="8" ry="8"/><ellipse fill="#886FFF" cx="269" cy="95" rx="8" ry="8"/><ellipse fill="#886FFF" cx="251" cy="236" rx="8" ry="8"/><circle fill="#886FFF" cx="299" cy="100" r="5"/><circle fill="#886FFF" cx="277" cy="38" r="5"/><ellipse fill="#886FFF" cx="134" cy="285" rx="8" ry="8"/><circle fill="#886FFF" cx="144" cy="5" r="5"/><text font-family="Ionicons" font-size="48" font-weight="400" fill="#FFF"><tspan x="140" y="82"></tspan></text><text font-family="Ionicons" font-size="48" font-weight="400" fill="#FFF"><tspan x="140" y="140"></tspan></text><text font-family="Ionicons" font-size="48" font-weight="400" fill="#FFF"><tspan x="140" y="198"></tspan></text><circle fill="#D8DFE0" cx="150" cy="153" r="93"/><g transform="translate(124 126)"><mask id="b" fill="#fff"><use xlink:href="#a"/></mask><path fill="#6D5ACC" mask="url(#b)" d="M-14.286-14.286h83.334v83.334h-83.334z"/></g><circle stroke="#886FFF" stroke-dasharray="6" cx="150.5" cy="153.5" r="106.5"/><ellipse fill-opacity=".2" fill="#886FFF" cx="47.5" cy="88.5" rx="47.5" ry="47.5"/><ellipse fill-opacity=".2" fill="#886FFF" cx="295.5" cy="173.5" rx="47.5" ry="47.5"/><circle fill="#B5A9F2" cx="223.5" cy="70.5" r="32.5"/><circle fill-opacity=".2" fill="#886FFF" cx="76.5" cy="260.5" r="32.5"/><text font-family="FontAwesome" font-size="31" fill="#FFF"><tspan x="63" y="273"></tspan></text><text font-family="FontAwesome" font-size="30" fill="#FFF"><tspan x="31.286" y="96"></tspan></text><text font-family="FontAwesome" font-size="30" fill="#FFF"><tspan x="211" y="80"></tspan></text><text font-family="Ionicons" font-size="40" font-weight="400" fill="#FFF"><tspan x="286" y="186"></tspan></text></g></svg>