<svg width="438" height="323" viewBox="0 0 438 323" xmlns="http://www.w3.org/2000/svg"><title>features-leads-funnel</title><g fill="none" fill-rule="evenodd"><path fill="#C6C8E6" d="M212 323L39 87h346z"/><path d="M81.517 145L212 323l130.483-178H81.517z" fill="#D8DFE1"/><path d="M.5 86.5h437.282M64.5 262.5h309.282m-330.291-58h351.29m-372.299-59h394.3" stroke="#886FFF" stroke-linecap="square" stroke-dasharray="6"/><circle fill="#886FFF" cx="109" cy="54" r="8"/><circle fill="#886FFF" cx="174" cy="31" r="5"/><circle fill="#886FFF" cx="88" cy="38" r="5"/><circle fill="#886FFF" cx="138" cy="60" r="5"/><circle fill="#886FFF" cx="210" cy="44" r="8"/><circle fill="#886FFF" cx="146" cy="23" r="8"/><circle fill="#886FFF" cx="273" cy="38" r="8"/><circle fill="#886FFF" cx="334" cy="58" r="8"/><circle fill="#886FFF" cx="240" cy="60" r="8"/><circle fill="#886FFF" cx="179" cy="62" r="8"/><circle fill="#886FFF" cx="312" cy="15" r="5"/><circle fill="#886FFF" cx="294" cy="63" r="5"/><circle fill="#886FFF" cx="63" cy="62" r="8"/><circle fill="#886FFF" cx="203" cy="5" r="5"/><text font-family="Ionicons" font-size="48" font-weight="400" fill="#FFF"><tspan x="196" y="136"></tspan></text><text font-family="Ionicons" font-size="48" font-weight="400" fill="#FFF"><tspan x="196" y="194"></tspan></text><text font-family="Ionicons" font-size="48" font-weight="400" fill="#FFF"><tspan x="196" y="252"></tspan></text></g></svg>