<svg id="Layer_1" xmlns="http://www.w3.org/2000/svg" xmlns:xlink="http://www.w3.org/1999/xlink" viewBox="0 0 375 375"><style>.st0{clip-path:url(#SVGID_2_)}.st1{clip-path:url(#SVGID_4_);fill:#1a3a4e}.st2{clip-path:url(#SVGID_6_)}.st3{clip-path:url(#SVGID_8_);fill:#1a3a4e}.st4{clip-path:url(#SVGID_10_)}.st5{clip-path:url(#SVGID_12_);fill:#1a3a4e}.st6{clip-path:url(#SVGID_14_)}.st7{clip-path:url(#SVGID_16_);fill:#1a3a4e}.st8{clip-path:url(#SVGID_18_)}.st9{clip-path:url(#SVGID_20_);fill:#1a3a4e}.st10{clip-path:url(#SVGID_22_)}.st11{clip-path:url(#SVGID_24_);fill:#1a3a4e}.st12{clip-path:url(#SVGID_26_)}.st13{clip-path:url(#SVGID_28_);fill:#1a3a4e}.st14{clip-path:url(#SVGID_30_)}.st15{clip-path:url(#SVGID_32_);fill:#1a3a4e}.st16{clip-path:url(#SVGID_34_)}.st17{clip-path:url(#SVGID_36_);fill:#1a3a4e}.st18{clip-path:url(#SVGID_38_)}.st19{clip-path:url(#SVGID_40_);fill:#1a3a4e}.st20{clip-path:url(#SVGID_42_)}.st21{clip-path:url(#SVGID_44_);fill:#1a3a4e}.st22{clip-path:url(#SVGID_46_)}.st23{clip-path:url(#SVGID_48_);fill:#1a3a4e}.st24{clip-path:url(#SVGID_50_)}.st25{clip-path:url(#SVGID_52_);fill:#1a3a4e}.st26{clip-path:url(#SVGID_54_)}.st27{clip-path:url(#SVGID_56_);fill:#1a3a4e}.st28{clip-path:url(#SVGID_58_)}.st29{clip-path:url(#SVGID_60_);fill:#1a3a4e}</style><defs><path id="SVGID_1_" d="M276.6 363.3V195.7l86.7 28.1v139.4h-86.7zm-11.8 0h-41v-65c0-3.5-2.3-5.9-5.9-5.9h-61.5c-3.5 0-5.9 2.3-5.9 5.9v65h-41V150.6h154.7v212.7h.6zm-52.1 0h-49.8v-59.2h49.8v59.2zM98.4 138.9L187.5 85l89.1 53.9H98.4zm0 224.4H11.7V223.8l86.7-28.1v167.6zm95-351.6h59.2v28.7h-59.2V11.7zm181.6 208c0-2.3-1.8-4.7-4.1-5.9l-94.3-31.1v-32.2h21.1c2.3 0 4.7-1.8 5.9-4.1.6-2.3-.6-5.3-2.3-6.4L193.4 75V52.2h65c3.5 0 5.9-2.3 5.9-5.9V5.9c0-3.5-2.3-5.9-5.9-5.9h-70.9c-3.5 0-5.9 2.3-5.9 5.9v68.5L74.4 140c-2.3 1.2-3.5 4.1-2.3 6.4.6 2.3 2.9 4.1 5.9 4.1h21v32.2L4.1 214.5c-2.3.5-4.1 2.9-4.1 5.8v148.8c0 3.5 2.3 5.9 5.9 5.9h363.3c1.8 0 2.9-.6 4.1-1.8 1.2-1.2 1.8-2.3 1.8-4.1V219.7z"/></defs><clipPath id="SVGID_2_"><use xlink:href="#SVGID_1_" overflow="visible"/></clipPath><g class="st0"><defs><path id="SVGID_3_" d="M-2455.1-545h7910v6835h-7910z"/></defs><clipPath id="SVGID_4_"><use xlink:href="#SVGID_3_" overflow="visible"/></clipPath><path class="st1" d="M-25-25h425v425H-25z"/></g><defs><path id="SVGID_5_" d="M339.3 239.7c-3.5 0-5.9 2.3-5.9 5.9v18.8c0 3.5 2.3 5.9 5.9 5.9 3.5 0 5.9-2.3 5.9-5.9v-18.8c-.1-3.6-2.4-5.9-5.9-5.9z"/></defs><clipPath id="SVGID_6_"><use xlink:href="#SVGID_5_" overflow="visible"/></clipPath><g class="st2"><defs><path id="SVGID_7_" d="M-2455.1-545h7910v6835h-7910z"/></defs><clipPath id="SVGID_8_"><use xlink:href="#SVGID_7_" overflow="visible"/></clipPath><path class="st3" d="M308.4 214.7h61.7v80.5h-61.7z"/></g><defs><path id="SVGID_9_" d="M300.6 239.7c-3.5 0-5.9 2.3-5.9 5.9v18.8c0 3.5 2.3 5.9 5.9 5.9s5.9-2.3 5.9-5.9v-18.8c-.1-3.6-3-5.9-5.9-5.9z"/></defs><clipPath id="SVGID_10_"><use xlink:href="#SVGID_9_" overflow="visible"/></clipPath><g class="st4"><defs><path id="SVGID_11_" d="M-2455.1-545h7910v6835h-7910z"/></defs><clipPath id="SVGID_12_"><use xlink:href="#SVGID_11_" overflow="visible"/></clipPath><path class="st5" d="M269.7 214.7h61.7v80.5h-61.7z"/></g><defs><path id="SVGID_13_" d="M339.3 300.6c-3.5 0-5.9 2.3-5.9 5.9v18.8c0 3.5 2.3 5.9 5.9 5.9 3.5 0 5.9-2.3 5.9-5.9v-18.8c-.1-3.6-2.4-5.9-5.9-5.9z"/></defs><clipPath id="SVGID_14_"><use xlink:href="#SVGID_13_" overflow="visible"/></clipPath><g class="st6"><defs><path id="SVGID_15_" d="M-2455.1-545h7910v6835h-7910z"/></defs><clipPath id="SVGID_16_"><use xlink:href="#SVGID_15_" overflow="visible"/></clipPath><path class="st7" d="M308.4 275.6h61.7v80.5h-61.7z"/></g><defs><path id="SVGID_17_" d="M300.6 300.6c-3.5 0-5.9 2.3-5.9 5.9v18.8c0 3.5 2.3 5.9 5.9 5.9s5.9-2.3 5.9-5.9v-18.8c-.1-3.6-3-5.9-5.9-5.9z"/></defs><clipPath id="SVGID_18_"><use xlink:href="#SVGID_17_" overflow="visible"/></clipPath><g class="st8"><defs><path id="SVGID_19_" d="M-2455.1-545h7910v6835h-7910z"/></defs><clipPath id="SVGID_20_"><use xlink:href="#SVGID_19_" overflow="visible"/></clipPath><path class="st9" d="M269.7 275.6h61.7v80.5h-61.7z"/></g><defs><path id="SVGID_21_" d="M74.4 239.7c-3.5 0-5.9 2.3-5.9 5.9v18.8c0 3.5 2.3 5.9 5.9 5.9s5.9-2.3 5.9-5.9v-18.8c0-3.6-2.4-5.9-5.9-5.9z"/></defs><clipPath id="SVGID_22_"><use xlink:href="#SVGID_21_" overflow="visible"/></clipPath><g class="st10"><defs><path id="SVGID_23_" d="M-2455.1-545h7910v6835h-7910z"/></defs><clipPath id="SVGID_24_"><use xlink:href="#SVGID_23_" overflow="visible"/></clipPath><path class="st11" d="M43.6 214.7h61.7v80.5H43.6z"/></g><defs><path id="SVGID_25_" d="M35.7 239.7c-3.5 0-5.9 2.3-5.9 5.9v18.8c0 3.5 2.3 5.9 5.9 5.9 3.5 0 5.9-2.3 5.9-5.9v-18.8c0-3.6-2.9-5.9-5.9-5.9z"/></defs><clipPath id="SVGID_26_"><use xlink:href="#SVGID_25_" overflow="visible"/></clipPath><g class="st12"><defs><path id="SVGID_27_" d="M-2455.1-545h7910v6835h-7910z"/></defs><clipPath id="SVGID_28_"><use xlink:href="#SVGID_27_" overflow="visible"/></clipPath><path class="st13" d="M4.9 214.7h61.7v80.5H4.9z"/></g><defs><path id="SVGID_29_" d="M74.4 300.6c-3.5 0-5.9 2.3-5.9 5.9v18.8c0 3.5 2.3 5.9 5.9 5.9s5.9-2.3 5.9-5.9v-18.8c0-3.6-2.4-5.9-5.9-5.9z"/></defs><clipPath id="SVGID_30_"><use xlink:href="#SVGID_29_" overflow="visible"/></clipPath><g class="st14"><defs><path id="SVGID_31_" d="M-2455.1-545h7910v6835h-7910z"/></defs><clipPath id="SVGID_32_"><use xlink:href="#SVGID_31_" overflow="visible"/></clipPath><path class="st15" d="M43.6 275.6h61.7v80.5H43.6z"/></g><defs><path id="SVGID_33_" d="M35.7 300.6c-3.5 0-5.9 2.3-5.9 5.9v18.8c0 3.5 2.3 5.9 5.9 5.9 3.5 0 5.9-2.3 5.9-5.9v-18.8c0-3.6-2.9-5.9-5.9-5.9z"/></defs><clipPath id="SVGID_34_"><use xlink:href="#SVGID_33_" overflow="visible"/></clipPath><g class="st16"><defs><path id="SVGID_35_" d="M-2455.1-545h7910v6835h-7910z"/></defs><clipPath id="SVGID_36_"><use xlink:href="#SVGID_35_" overflow="visible"/></clipPath><path class="st17" d="M4.9 275.6h61.7v80.5H4.9z"/></g><defs><path id="SVGID_37_" d="M226.8 263.1c3.5 0 5.9-2.3 5.9-5.9v-18.8c0-3.5-2.3-5.9-5.9-5.9-3.5 0-5.9 2.3-5.9 5.9v18.8c0 3 2.3 5.9 5.9 5.9z"/></defs><clipPath id="SVGID_38_"><use xlink:href="#SVGID_37_" overflow="visible"/></clipPath><g class="st18"><defs><path id="SVGID_39_" d="M-2455.1-545h7910v6835h-7910z"/></defs><clipPath id="SVGID_40_"><use xlink:href="#SVGID_39_" overflow="visible"/></clipPath><path class="st19" d="M195.9 207.6h61.7v80.5h-61.7z"/></g><defs><path id="SVGID_41_" d="M187.5 263.1c3.5 0 5.9-2.3 5.9-5.9v-18.8c0-3.5-2.3-5.9-5.9-5.9-3.5 0-5.9 2.3-5.9 5.9v18.8c0 3 2.4 5.9 5.9 5.9z"/></defs><clipPath id="SVGID_42_"><use xlink:href="#SVGID_41_" overflow="visible"/></clipPath><g class="st20"><defs><path id="SVGID_43_" d="M-2455.1-545h7910v6835h-7910z"/></defs><clipPath id="SVGID_44_"><use xlink:href="#SVGID_43_" overflow="visible"/></clipPath><path class="st21" d="M156.6 207.6h61.7v80.5h-61.7z"/></g><defs><path id="SVGID_45_" d="M148.2 263.1c3.5 0 5.9-2.3 5.9-5.9v-18.8c0-3.5-2.3-5.9-5.9-5.9-3.5 0-5.9 2.3-5.9 5.9v18.8c.1 3 3 5.9 5.9 5.9z"/></defs><clipPath id="SVGID_46_"><use xlink:href="#SVGID_45_" overflow="visible"/></clipPath><g class="st22"><defs><path id="SVGID_47_" d="M-2455.1-545h7910v6835h-7910z"/></defs><clipPath id="SVGID_48_"><use xlink:href="#SVGID_47_" overflow="visible"/></clipPath><path class="st23" d="M117.4 207.6h61.7v80.5h-61.7z"/></g><defs><path id="SVGID_49_" d="M226.8 202.2c3.5 0 5.9-2.3 5.9-5.9v-18.8c0-3.5-2.3-5.9-5.9-5.9-3.5 0-5.9 2.3-5.9 5.9v18.8c0 2.9 2.3 5.9 5.9 5.9z"/></defs><clipPath id="SVGID_50_"><use xlink:href="#SVGID_49_" overflow="visible"/></clipPath><g class="st24"><defs><path id="SVGID_51_" d="M-2455.1-545h7910v6835h-7910z"/></defs><clipPath id="SVGID_52_"><use xlink:href="#SVGID_51_" overflow="visible"/></clipPath><path class="st25" d="M195.9 146.7h61.7v80.5h-61.7z"/></g><defs><path id="SVGID_53_" d="M187.5 202.2c3.5 0 5.9-2.3 5.9-5.9v-18.8c0-3.5-2.3-5.9-5.9-5.9-3.5 0-5.9 2.3-5.9 5.9v18.8c0 2.9 2.4 5.9 5.9 5.9z"/></defs><clipPath id="SVGID_54_"><use xlink:href="#SVGID_53_" overflow="visible"/></clipPath><g class="st26"><defs><path id="SVGID_55_" d="M-2455.1-545h7910v6835h-7910z"/></defs><clipPath id="SVGID_56_"><use xlink:href="#SVGID_55_" overflow="visible"/></clipPath><path class="st27" d="M156.6 146.7h61.7v80.5h-61.7z"/></g><defs><path id="SVGID_57_" d="M148.2 202.2c3.5 0 5.9-2.3 5.9-5.9v-18.8c0-3.5-2.3-5.9-5.9-5.9-3.5 0-5.9 2.3-5.9 5.9v18.8c.1 2.9 3 5.9 5.9 5.9z"/></defs><clipPath id="SVGID_58_"><use xlink:href="#SVGID_57_" overflow="visible"/></clipPath><g class="st28"><defs><path id="SVGID_59_" d="M-2455.1-545h7910v6835h-7910z"/></defs><clipPath id="SVGID_60_"><use xlink:href="#SVGID_59_" overflow="visible"/></clipPath><path class="st29" d="M117.4 146.7h61.7v80.5h-61.7z"/></g></svg>