<svg width="1440" height="375" viewBox="0 0 1440 375" xmlns="http://www.w3.org/2000/svg"><title>cluster-fade-right</title><g fill="none" fill-rule="evenodd" opacity=".5"><path fill="#322F7A" d="M1253 157.259L1190.333 107 1159 147.452 1197.163 183 1253 157.259"/><path fill="#793E85" d="M1296 71l101-56.31L1304.714 0 1296 71"/><path fill="#364A8E" d="M1075.2 244l-13.2 60 96-41.633L1075.2 244"/><path fill="#5F5594" d="M1213.216 69L1295 125.036 1206 136l7.216-67"/><path fill="#364A8E" d="M1227 187l96-79-88.8 10.939L1227 187"/><path fill="#322F7A" d="M1104 128l48-67v56.036L1104 128"/><path fill="#6F3B83" d="M1440 255.678L1347.616 290 1275 252l165 3.678"/><path fill="#3E498C" opacity=".1" d="M-18 174l129 55.434L4.062 244-18 191.804V174"/><path fill="#5F5594" d="M1033 207.948L1009 237l-18-46 42 16.948"/><path fill="#53317D" d="M925 356.585L903 343l5.31 32L925 356.585"/><path fill="#876FFF" d="M1124 201.585L1102 188l5.31 32 16.69-18.415"/></g></svg>