<svg width="1440" height="393" viewBox="0 0 1440 393" xmlns="http://www.w3.org/2000/svg" xmlns:xlink="http://www.w3.org/1999/xlink"><title>cluster-fade-2</title><defs><path id="a" d="M0 0h1440v393H0z"/></defs><g fill="none" fill-rule="evenodd" opacity=".3"><mask id="b" fill="#fff"><use xlink:href="#a"/></mask><use fill="#FFF" xlink:href="#a"/><path fill="#364B8D" opacity=".6" mask="url(#b)" d="M1203.407 205.716l14.866 67.579-108.115-46.892 93.25-20.687"/><path fill="#364B8D" mask="url(#b)" d="M234.838 274.453l14.866 67.579-108.116-46.892 93.25-20.687"/><path fill="#322F7A" mask="url(#b)" d="M330.403 199.8l-54.057-75.463v63.114l54.057 12.349"/><path fill="#79488B" mask="url(#b)" d="M1105.11 79.568l108.115 45.678-84.69 36.543-23.425-82.22"/><path fill="#3E498C" mask="url(#b)" d="M1208.72 178.046l120.434 16.407L1354 115.61z"/><path fill="#5F5594" mask="url(#b)" d="M250.364 241.846l27.028 32.722 20.272-51.81-47.3 19.088"/><path fill="#DB2C71" mask="url(#b)" d="M1224.02 25.232l-20.271-20.58 2.105 31.537 18.167-10.957"/><path fill="#784A8B" mask="url(#b)" d="M1138.392 61.81l29.282 2.077-12.002 10.313-17.28-12.39"/><path fill="#E77A97" mask="url(#b)" d="M1251.494 308.958l-31.704 13.605 40.543 7.795-8.839-21.4M1065.11 150.526l9.04-20.273 21.367 5.914-30.407 14.36"/><path fill="#53327D" mask="url(#b)" transform="rotate(150 368.381 187.979)" d="M355.993 185.26l24.777-15.302L374.79 206l-18.797-20.74"/><path fill="#876FFF" mask="url(#b)" d="M187.88 234.68l24.776-15.301-5.98 36.042-18.797-20.74"/></g></svg>