<svg width="1440" height="428" viewBox="0 0 1440 428" xmlns="http://www.w3.org/2000/svg"><title>cluster-fade</title><g fill="none" fill-rule="evenodd" opacity=".3"><path fill="#322F7A" d="M1363.4 182.754l-70.575-56.607-35.287 45.562 42.978 40.038 62.885-28.993"/><path fill="#793E85" d="M1411.827 85.6l113.746-63.423L1421.64 5.632l-9.813 79.968"/><path fill="#364A8E" opacity=".6" d="M42.593 291.716l-14.866 67.579 108.115-46.892-93.25-20.687"/><path fill="#364A8E" d="M1163.162 280.453l-14.866 67.579 108.116-46.892-93.25-20.687"/><path fill="#5F5594" d="M1318.596 83.347l92.105 63.115-100.232 12.349 8.127-75.464"/><path fill="#364A8E" d="M1334.12 216.253l108.115-88.98-100.007 12.321-8.109 76.659"/><path fill="#322F7A" d="M1195.597 149.8l54.057-75.463v63.114l-54.057 12.349"/><path fill="#79488B" d="M180.89 165.568L72.775 211.246l84.69 36.543 23.425-82.22"/><path fill="#6F3B83" d="M1574 293.606l-104.043 38.657-81.78-42.8L1574 293.606"/><path fill="#3E498C" d="M-68 201.61l145.28 62.436-120.434 16.407L-68 221.663v-20.052"/><path fill="#5F5594" d="M1115.636 239.846l-27.028 32.722-20.272-51.81 47.3 19.088"/><path fill="#DB2C71" d="M29.98 151.232l20.271-20.58-2.105 31.537-18.167-10.957"/><path fill="#784A8B" d="M267.608 51.81l-29.282 2.077L250.328 64.2l17.28-12.39"/><path fill="#E77A97" d="M-5.494 394.958l31.704 13.605-40.543 7.795 8.839-21.4M64.892 27.257S42.368-5.022 42.368.674c0 5.697-11.262 39.873-11.262 39.873l33.786-13.29M180.89 236.526l-9.04-20.273-21.367 5.914 30.407 14.36"/><path fill="#53317D" d="M994.007 407.26l-24.777-15.302L975.21 428l18.797-20.74"/><path fill="#876FFF" d="M1218.12 232.68l-24.776-15.301 5.98 36.042 18.797-20.74"/></g></svg>