<svg width="1440" height="380" viewBox="0 0 1440 380" xmlns="http://www.w3.org/2000/svg" xmlns:xlink="http://www.w3.org/1999/xlink"><title>Group 12</title><defs><path id="a" d="M0 0h1440v550H0z"/></defs><g transform="matrix(-1 0 0 1 1440 -95)" fill="none" fill-rule="evenodd"><mask id="b" fill="#fff"><use xlink:href="#a"/></mask><path fill="#322F7A" mask="url(#b)" d="M132 257.01L197.592 207l32.796 40.252-39.944 35.372L132 257.01"/><path fill="#793E85" mask="url(#b)" d="M88.218 170.745L-19 114.637 78.968 100l9.25 70.745"/><path fill="#364A8E" opacity=".6" mask="url(#b)" d="M1361.68 354.259l13.875 59.767-100.91-41.471 87.035-18.296"/><path fill="#364A8E" mask="url(#b)" d="M319.504 344l13.875 59.767-100.91-41.471L319.504 344"/><path fill="#5F5594" mask="url(#b)" d="M173.775 169L88 225.109l93.343 10.978L173.775 169"/><path fill="#364A8E" mask="url(#b)" d="M158.911 287.283L58 208l93.343 10.978 7.568 68.305"/><path fill="#322F7A" mask="url(#b)" d="M288.758 228.086L238 161v56.108l50.758 10.978"/><path fill="#79488B" mask="url(#b)" d="M1232.592 241.655l100.911 40.658-79.047 32.527-21.864-73.185"/><path fill="#6F3B83" mask="url(#b)" d="M-64 355.66l96.286 34.153L107.969 352-64 355.66"/><path fill="#3E498C" mask="url(#b)" d="M1464.84 273.92l-135.423 55.702 112.263 14.637 23.16-52.449v-17.89"/><path fill="#5F5594" mask="url(#b)" d="M362.772 307.899L388 337.173l18.921-46.351-44.149 17.077"/><path fill="#DB2C71" mask="url(#b)" d="M1373.843 229.122l-18.844-18.003 1.957 27.589 16.887-9.586"/><path fill="#784A8B" mask="url(#b)" d="M1152.507 140.966l26.183 1.781-10.732 8.848-15.451-10.629"/><path fill="#E77A97" mask="url(#b)" d="M1201.693 348.155l-29.494 12.395 37.717 7.102-8.223-19.497M1341 119.692s21.023-28.8 21.023-23.718c0 5.083 10.512 35.576 10.512 35.576L1341 119.692m-108.179 185.231l8.672-18.296 20.498 5.337-29.17 12.959"/><path fill="#53317D" mask="url(#b)" d="M477.078 456.352l22.282-13.653-5.378 32.159-16.904-18.506"/><path fill="#876FFF" mask="url(#b)" d="M267 301.653L289.282 288l-5.378 32.159L267 301.653"/></g></svg>