<svg width="157" height="217" viewBox="0 0 157 217" xmlns="http://www.w3.org/2000/svg"><title>features-leaderboard-banner-cluster-1</title><g fill="#FFF" fill-rule="evenodd"><path d="M53.374 29.641c2.397-1.035 4.173-2.773 5.263-5.205 3.744-8.342-1.814-21.983-2.052-22.557a1.109 1.109 0 0 0-1.406-.61L48.2 3.81A144.774 144.774 0 0 0 47.108.697a1.105 1.105 0 0 0-1.422-.65L7.955 13.78c-.579.21-.878.843-.67 1.412.37 1.02.76 2.055 1.16 3.089l-7.19 2.616c-.56.204-.862.809-.685 1.37.188.597 4.693 14.617 12.927 18.6 2.422 1.172 4.933 1.355 7.465.576 5.07 6.198 11.066 10.1 17.976 9.165l1.583 5.864-3.168 1.153c-.578.21-.878.842-.67 1.412l1.445 3.97-5.31 1.934c-.578.21-.878.842-.671 1.41l1.883 5.175c.207.569.844.86 1.42.65l26.502-9.645c.578-.21.878-.843.67-1.412l-1.882-5.174a1.105 1.105 0 0 0-1.422-.65l-5.31 1.933-1.445-3.97a1.105 1.105 0 0 0-1.42-.652L48.19 53.68l-2.563-5.52c5.842-3.757 7.811-10.709 7.747-18.519zm6.777 31.204L35.74 69.73l-1.13-3.107 5.218-1.9c.033-.008.063-.012.098-.024l13.787-5.018c.032-.012.061-.03.092-.045l5.217-1.899 1.128 3.108zM51.91 57.99l-11.69 4.255-1.07-2.936 11.69-4.255 1.07 2.936zM54.9 3.711c1.174 3.215 4.53 13.56 1.705 19.853-.738 1.646-1.832 2.852-3.313 3.68-.412-7.177-2.323-14.854-4.403-21.34-.002-.004 6.01-2.193 6.01-2.193zM14.491 38.888C8.285 35.887 4.206 25.804 3.038 22.583l6.217-2.262c2.778 6.858 6.196 13.745 10.249 19.233-1.704.35-3.355.137-5.012-.666zM9.759 15.462l35.63-12.968c11.219 31.476 3.765 41.25-1.728 44.28a1.1 1.1 0 0 0-.478 1.424l2.899 6.245-3.46 1.259-1.794-6.639c-.15-.558-.713-.9-1.289-.785-14.106 2.858-24.58-18.85-29.78-32.816z"/><path d="M35.258 30.427l5.614 1.571-3.581-4.544 3.294-4.812-5.505 2.003-3.58-4.544.177 5.783-5.504 2.003 5.617 1.57.178 5.782zm90.679 77.896c-13.26 3.061-21.526 16.29-18.465 29.55 3.062 13.26 16.29 21.526 29.55 18.465 13.26-3.062 21.526-16.29 18.465-29.55-3.061-13.26-16.29-21.527-29.55-18.465zm10.716 46.414c-12.357 2.853-24.728-4.877-27.58-17.234-2.853-12.356 4.877-24.727 17.234-27.58 12.356-2.853 24.727 4.878 27.58 17.234 2.852 12.357-4.878 24.727-17.234 27.58z"/><path d="M148.18 122.317a1.832 1.832 0 0 0-1.739-.89l-10.698.887-6.792-8.313a1.839 1.839 0 0 0-1.849-.632 1.84 1.84 0 0 0-1.385 1.379l-2.464 10.446-10.003 3.894c-.66.257-1.11.855-1.174 1.56a1.837 1.837 0 0 0 .883 1.743l9.18 5.573.612 10.717c.033.545.298 1.046.732 1.37a1.872 1.872 0 0 0 2.321-.076l8.133-7.003 10.382 2.728c.296.078.595.083.886.015a1.853 1.853 0 0 0 1.289-2.519l-4.15-9.897 5.804-9.029a1.833 1.833 0 0 0 .032-1.953zm-1.41 1.066l-6.04 9.39a.818.818 0 0 0-.066.762l4.315 10.298a.188.188 0 0 1-.005.17.207.207 0 0 1-.24.111l-10.8-2.839a.826.826 0 0 0-.744.172l-8.462 7.286c-.08.072-.184.067-.266.006a.185.185 0 0 1-.078-.151l-.637-11.148a.821.821 0 0 0-.394-.655l-9.538-5.794a.189.189 0 0 1-.097-.194.192.192 0 0 1 .132-.174l10.406-4.05a.829.829 0 0 0 .502-.575l2.563-10.868a.202.202 0 0 1 .155-.156.193.193 0 0 1 .207.072l7.067 8.645a.82.82 0 0 0 .704.297l11.129-.922a.203.203 0 0 1 .187.317zm-77.556 71.899v-7.82H57.546v14.254H48v14.32h30.801v-20.754h-9.587zm-11.668 18.632h-7.425v-10.077h7.425v10.077zm9.547 0h-7.425v-24.33h7.425v24.33zm9.584 0h-7.425v-16.51h7.425v16.51zM93.743 43.028A3.756 3.756 0 0 0 90 46.771a3.756 3.756 0 0 0 3.743 3.743 3.756 3.756 0 0 0 3.743-3.743 3.756 3.756 0 0 0-3.743-3.743zm0 1.872c1.045 0 1.871.826 1.871 1.871a1.856 1.856 0 0 1-1.871 1.871 1.856 1.856 0 0 1-1.872-1.871c0-1.045.826-1.871 1.872-1.871zm6.462.935a.94.94 0 0 0-.891.98.934.934 0 0 0 .98.892h18.246a.929.929 0 0 0 .67-.271.933.933 0 0 0 0-1.33.929.929 0 0 0-.67-.27h-18.247a.518.518 0 0 0-.088 0zm21.99 0a.94.94 0 0 0-.892.98.934.934 0 0 0 .98.892h2.34a.929.929 0 0 0 .67-.271.933.933 0 0 0 0-1.33.929.929 0 0 0-.67-.27h-2.34a.518.518 0 0 0-.088 0zm-28.452 11.23A3.756 3.756 0 0 0 90 60.806a3.756 3.756 0 0 0 3.743 3.743 3.756 3.756 0 0 0 3.743-3.743 3.756 3.756 0 0 0-3.743-3.743zm0 1.87c1.045 0 1.871.826 1.871 1.872a1.856 1.856 0 0 1-1.871 1.871 1.856 1.856 0 0 1-1.872-1.871c0-1.046.826-1.871 1.872-1.871zm6.462.936a.94.94 0 0 0-.891.98.934.934 0 0 0 .98.892h24.328a.929.929 0 0 0 .67-.271.933.933 0 0 0 0-1.33.929.929 0 0 0-.67-.27h-24.329a.518.518 0 0 0-.088 0zm-6.462 11.23A3.756 3.756 0 0 0 90 74.842a3.756 3.756 0 0 0 3.743 3.743 3.756 3.756 0 0 0 3.743-3.743 3.756 3.756 0 0 0-3.743-3.743zm0 1.87c1.045 0 1.871.826 1.871 1.872a1.856 1.856 0 0 1-1.871 1.871 1.856 1.856 0 0 1-1.872-1.871c0-1.046.826-1.871 1.872-1.871zm6.462.936a.94.94 0 0 0-.891.98.934.934 0 0 0 .98.892h24.328a.929.929 0 0 0 .67-.271.933.933 0 0 0 0-1.33.929.929 0 0 0-.67-.27h-24.329a.518.518 0 0 0-.088 0z"/></g></svg>