<svg width="894" height="465" viewBox="0 0 894 465" xmlns="http://www.w3.org/2000/svg"><title>full-map</title><g fill="none" fill-rule="evenodd"><g fill="#FFF"><path d="M292.975 277.142l-28.323-21.012-41.99-4.224-6.273 10.22-8.513-2.832-4.143-15.753-12.595-.88 5.25-14.873-10.512-1.07-10.513 8.46-7.345-10.555 6.286-17.799 28.406-4.236 5.166 14.694 7.441-1.023v-13.67l19.906-27.283 25.203-13.659 32.549-14.646-23.108-51.495-10.513 6.33-8.321-23.107-20.049 1.071-5.155 40.942-7.345 1.07-30.513-32.577 6.322-16.776 31.536-6.27v-39.93l-78.824 8.412-40.882-24.165-18.93 17.847L35.669 0 7.345 16.824l10.513 15.753H6.274l-3.107 11.53L18.882 46.2 3.167 58.788l5.202 17.847L22.05 79.8 0 97.647l34.644-16.776 18.882-10.553L83.99 89.235l24.18 40.942v36.717l14.69 27.33 24.144 37.788 29.43 10.459 12.607 6.317 14.691 18.87 10.239-1.582-11.262 18.407 9.393 37.74 20 17.847-24.227 97.648 8.465 21.012 24.132 6.27-14.644-15.753 19.906-37.788 43.061-36.718 3.155-16.776 21.024-3.212L334 311.765l-36.787-17.847zM795.056 284l-2.267 17.905-15.073-5.518 2.777-9.718-16.45-1.317-21.374 20.06L720 313.694l5.566 31.082-2.089 6.176 8.249 4.859 33.611-8.414 12.984 7.624 6.208-3.459 4.13 12.567L805.76 369l12.379-7.624L825 324.07l-18.491-18.658zm-83.311-17.369L729.694 270 738 245.091 733.143 241 709 255.838zM817 285l-6.29-12.7-28.9-13.3-14.81 1.315 19.003 18.652 10.946.715 4.57-4.048zm-16.365-182h-4.679l-.687 24.798-12.092 26.144-15.502 11.72L767 176l28.27-17.223 1.326-17.913L806 131.93l-7.32-6.182 3.957-14.471zm74.755 251l2.097 19.442-21.487 20.2L869.866 395l12.45-18.78L892 363.017l-6.22-.662zM414.368 65.05V85l13.766-6.065 3.866-6.16L417.126 44l-8.793 6.1.554 7.736L400.6 67.87l-.6 10.508h9.948zm126.196 235.673L540 323.128l9.048 3.872L558 300.161 555.756 289z"/><path d="M869.187 62.718L894 48.972l-6.889-19.228L704.291 4S593.54 15.713 532.462 22.122l-52.928-9.703-21.237 11.653-8.33 20.571-10.06 7.813-.548 17.23 5.578 3.294 11.691-6.635 5.626 17.789 10.01-3.9 6.71-17.837-6.71-7.206 6.15-13.33 7.21-8.918 4.422.701-4.136 10.452-4.707 3.342 1.728 4.221-.334.702.608.047 4.1 9.989 11.727-3.306 4.052 4.745-12.99 4.173 2.848 10.595-8.426-2.83-6.102 15.601-21.786-.559-3.909-11.142-5.03 6.683 1.67 7.254-7.819.559-9.498 12.77-17.27 5.577 4.47 9.466 7.222 11.665-22.822-1.677 1.12 22.296 17.877 2.794 11.691-18.395 16.757-8.36 7.21 8.36 10.01 13.377 7.318-8.407-13.967-9.43-.56-8.918 6.697 3.342 11.18 8.918-.56 8.823 8.33 10.595 3.909-13.377 4.469 2.223 6.102 10.595 18.902 3.163-3.075 10.31-7.127 4.22-27.363-7.015-6.9 9.62-17.878-11.7-2.788-11.666-44.085 7.527-22.763 27.492L384 225.482l23.466 22.712 42.034-2.795 12.383 38.515-4.79 21.963L477.065 354l22.763-4.138 22.716-42.641 12.382-9.608-3.396-29.537 22.072-19.977 6.888-24.068-22.072 10.322-22.536-51.477 4.612-.784 22.072 43.295 42.737-25.411-14.528-11.011-11.036 5.481-6.888-16.528 4.839-2.747 9.641 8.217 33.144 6.183 13.729 16.54 12.43 30.929 9.69-9.608V215.72l26.862-18.62 9.63 20.666 8.009-1.998 1.68 20.583 8.283 15.09-17.924-8.966 13.133 18.538 14.48 13.794 34.443 6.171-18.568-7.515-13.825-4.84-4.803-22.01-11.036-12.402.43-12.402 12.704 13.092 12.382-10.31-11.68-17.182 5.495-8.919 25.504-1.39 11.692-21.274-8.426-23.045 10.332-11.01 7.628 10.32 2.753 13.045 8.938-4.78-3.444-14.448 7.592-11.01 12.43-2.046 14.42-39.894-12.382-8.919 17.233-16.54 22.763 1.356 18.616-15.102L856.1 51.66l-23.418 28.194.703 24.721 17.924-22.022-.703-15.839 18.58-3.995zM531.948 144.79l-12.24-3.294-16.756 2.782-3.921-7.194 8.89-15.613 29.009 15.054-4.982 8.265zm20.117 9.524l2.741-10.595-6.101-15.553 17.316-9.477V127l-6.698 2.794 5.637 8.36 2.694 17.277-15.589-1.118zM317.875 20.215L302.269 16 283 36.353l24.786 63.83L319.515 103l.933-20.72 7.947-4.854.467-7.862L337 54.397l-5.66-11.568z"/></g><g transform="translate(116 70)" stroke="#886FFF"><path stroke-width="2" d="M10 124l102-21 192-92 51 42 19 211 320 1"/><circle stroke-width="4" fill="#FFF" cx="304" cy="9" r="9"/><circle stroke-width="4" fill="#FFF" cx="354" cy="54" r="9"/><circle stroke-width="4" fill="#FFF" cx="372" cy="265" r="9"/><circle stroke-width="4" fill="#FFF" cx="689" cy="265" r="9"/><circle stroke-width="4" fill="#FFF" cx="112" cy="102" r="9"/><circle stroke-width="4" fill="#FFF" cx="9" cy="124" r="9"/></g></g></svg>