<svg id="Layer_1" xmlns="http://www.w3.org/2000/svg" viewBox="0 0 22 22"><style>.st0{fill:#34a853}.st1{fill:#06a0ef}.st2{fill:#ea4335}.st3{fill:#fbbc05}</style><path class="st0" d="M21.7 9H11v4h6c-.6 2.7-2.6 4.5-5.7 4.5-3.7 0-6.7-2.9-6.7-6.5s3-6.5 6.7-6.5c1.6 0 3 .5 4.1 1.4l3.3-3.2C16.7 1 14.1 0 11.3 0 5 0 0 4.9 0 11s5 11 11.3 11C16.9 22 22 18 22 11c0-.6-.1-1.4-.3-2z"/><path class="st0" d="M18.4 19.4l-3.7-2.9c-.9.6-2.1 1-3.5 1-3 0-5.5-1.9-6.3-4.5l-3.8 2.9c-.2-.4-.3-.7-.5-1.1C2.2 19 6.4 22 11.3 22c3 0 5.9-1.2 7.9-3.3-.3.2-.5.5-.8.7z"/><path class="st1" d="M21.7 9H11v4h6c-.3 1.5-1.1 2.7-2.3 3.5l3.7 2.9c2.2-1.9 3.6-4.7 3.6-8.4 0-.6-.1-1.3-.3-2z"/><path class="st2" d="M4.8 9.4c.7-2.8 3.3-4.9 6.4-4.9 1.6 0 3 .5 4.1 1.5l3.3-3.2C16.6 1.1 14 .1 11.2.1 6.7 0 2.7 2.7 1 6.5l3.8 2.9z"/><path class="st3" d="M4.6 11c0-.5.1-1.1.2-1.6L1 6.5C.3 7.9 0 9.4 0 11c0 1.7.4 3.4 1.2 4.9L4.9 13c-.2-.6-.3-1.3-.3-2z"/></svg>