<svg width="50" height="38" viewBox="0 0 50 38" xmlns="http://www.w3.org/2000/svg" xmlns:xlink="http://www.w3.org/1999/xlink"><title>ico-fg-tasks</title><defs><path d="M0 23.749c.005.489.174.925.53 1.328l12.196 12.164.037.028c.174.13.37.24.581.323.221.09.451.137.682.143h.047c.23-.006.458-.054.679-.143a2.54 2.54 0 0 0 .581-.322l.04-.029 34.05-34.006c.378-.378.577-.846.577-1.353 0-.51-.2-.96-.577-1.307A1.736 1.736 0 0 0 48.113 0c-.51 0-.98.2-1.357.576L14.073 33.172 3.209 22.34a1.964 1.964 0 0 0-1.322-.498c-.499 0-.944.168-1.323.498l-.034.03-.03.034A1.952 1.952 0 0 0 0 23.7v.049z" id="a"/></defs><g fill="none" fill-rule="evenodd"><mask id="b" fill="#fff"><use xlink:href="#a"/></mask><path fill="#6D5ACC" mask="url(#b)" d="M-13.208-13.208h78.302v65.095h-78.302z"/></g></svg>