<svg width="45" height="75" viewBox="0 0 45 75" xmlns="http://www.w3.org/2000/svg"><title>ico-phone</title><g fill="#6D5ACC" fill-rule="evenodd"><path d="M40.328.75H4.672A3.916 3.916 0 0 0 .75 4.656v65.688a3.916 3.916 0 0 0 3.922 3.906h35.656a3.916 3.916 0 0 0 3.922-3.906V4.656A3.916 3.916 0 0 0 40.328.75zM4.672 3.879h35.656a.75.75 0 0 1 .75.75v54.75H3.891V4.629a.75.75 0 0 1 .781-.75zM41.109 62.52v7.824a.75.75 0 0 1-.75.75H4.672a.75.75 0 0 1-.75-.75V62.52h37.187z"/><path d="M25.77 66.84c0 4.359-6.54 4.359-6.54 0 0-4.36 6.54-4.36 6.54 0"/></g></svg>