<svg width="43" height="43" viewBox="0 0 43 43" xmlns="http://www.w3.org/2000/svg" xmlns:xlink="http://www.w3.org/1999/xlink"><title>ico-fg-graph</title><defs><path id="a" d="M0 43h43V0H0z"/></defs><g fill="none" fill-rule="evenodd"><mask id="b" fill="#fff"><use xlink:href="#a"/></mask><path d="M33.35 8.599c.28 0 .526.105.736.315.21.21.315.455.315.735 0 .309-.105.567-.315.777-.21.21-.456.315-.735.315-.309 0-.567-.105-.777-.315a1.055 1.055 0 0 1-.315-.777c0-.28.105-.525.315-.735.21-.21.468-.315.777-.315zm-6.468 21.506c-.308 0-.567-.105-.777-.315a1.055 1.055 0 0 1-.315-.777c0-.28.105-.525.315-.735.21-.21.469-.315.777-.315.308 0 .567.105.777.315.21.21.315.455.315.735 0 .308-.105.567-.315.777-.21.21-.47.315-.777.315zm-9.975-10.438c.21.21.314.455.314.735 0 .308-.105.567-.314.777-.21.21-.47.315-.778.315-.308 0-.567-.105-.777-.315a1.055 1.055 0 0 1-.315-.777c0-.28.105-.525.315-.735.21-.21.469-.315.777-.315.308 0 .567.105.778.315zM9.66 34.389c-.28 0-.525-.105-.735-.315a1.008 1.008 0 0 1-.315-.735c0-.308.105-.567.315-.777.21-.21.455-.315.735-.315.307 0 .567.105.777.315.21.21.315.47.315.777 0 .28-.105.525-.315.735-.21.21-.47.315-.777.315zM35.598 7.402c-.63-.63-1.38-.945-2.247-.945-.897 0-1.66.315-2.29.945-.63.63-.944 1.38-.944 2.247 0 .533.111 1.015.336 1.45.223.434.517.805.882 1.112L26.84 25.78a4.465 4.465 0 0 0-.882.168 3.1 3.1 0 0 0-.756.336l-6.006-4.789a3.408 3.408 0 0 0 .168-1.092c0-.868-.315-1.617-.945-2.247a3.118 3.118 0 0 0-2.29-.945c-.896 0-1.659.315-2.289.945-.63.63-.945 1.38-.945 2.247 0 .448.084.861.252 1.24.168.377.392.72.672 1.028l-3.738 7.435H9.66c-.869 0-1.617.315-2.247.945a3.118 3.118 0 0 0-.945 2.289c0 .869.314 1.617.945 2.247.63.63 1.378.945 2.247.945.896 0 1.659-.315 2.289-.945.63-.63.945-1.378.945-2.247a3.265 3.265 0 0 0-.882-2.268l3.738-7.435h.378c.308 0 .61-.042.903-.126.294-.084.567-.195.82-.336l6.006 4.789a1.77 1.77 0 0 0-.168.525 3.419 3.419 0 0 0-.042.525c0 .896.315 1.659.945 2.289.63.63 1.393.945 2.29.945.895 0 1.658-.315 2.288-.945a3.12 3.12 0 0 0 .946-2.29 3.15 3.15 0 0 0-.337-1.427 2.937 2.937 0 0 0-.923-1.093l4.536-13.609c.867 0 1.61-.315 2.226-.945.616-.63.924-1.392.924-2.289 0-.868-.315-1.617-.945-2.247zM1.092 43c-.308 0-.567-.105-.777-.315-.21-.21-.315-.47-.315-.777V1.08A1.06 1.06 0 0 1 .84.03c.224-.055.448-.034.672.063a1 1 0 0 1 .504.483L4.2 4.903c.112.252.126.518.042.798a1.01 1.01 0 0 1-.546.63.935.935 0 0 1-.798.063 1.086 1.086 0 0 1-.63-.567l-.126-.21v35.24h35.241l-.252-.125a1.118 1.118 0 0 1-.525-.63.935.935 0 0 1 .063-.798c.14-.28.35-.47.63-.567a.94.94 0 0 1 .798.063l4.326 2.142a.986.986 0 0 1 .484.525c.097.238.118.469.063.693a1.06 1.06 0 0 1-1.05.84H1.091z" fill="#6D5ACC" mask="url(#b)"/></g></svg>