<svg width="57" height="57" viewBox="0 0 57 57" xmlns="http://www.w3.org/2000/svg"><title>ico-fg-leaderboard</title><g fill="none" fill-rule="evenodd"><path fill="#FFF" d="M0 0h57v57H0z"/><g fill="#6D5ACC"><path d="M43.211 27.603c2.142-.125 4.002-.969 5.528-2.54 5.236-5.39 4.778-17.487 4.755-17.997a.911.911 0 0 0-.914-.866h-6.104c.022-.938.031-1.846.031-2.711a.908.908 0 0 0-.915-.902H12.594a.908.908 0 0 0-.915.902c0 .892.01 1.8.028 2.711H5.42a.911.911 0 0 0-.914.866c-.023.513-.485 12.607 4.755 17.997 1.54 1.586 3.429 2.433 5.602 2.543 2.174 6.212 5.708 10.91 11.307 12.13l-.426 4.974h-2.771a.908.908 0 0 0-.914.902v3.473h-4.645a.908.908 0 0 0-.914.901v4.525c0 .498.41.902.914.902h23.177a.908.908 0 0 0 .915-.902v-4.525a.908.908 0 0 0-.915-.901h-4.643v-3.473a.908.908 0 0 0-.915-.902h-2.582l-.428-4.983c5.567-1.259 9.043-6.074 11.188-12.124zm-3.537 26.003H18.326v-2.717h4.564c.027.003.052.008.083.008H35.03c.028 0 .056-.005.083-.008h4.564l-.003 2.717zm-5.562-4.521H23.888v-2.568h10.224v2.568zM51.678 8.007c.003 2.813-.313 11.746-4.263 15.811-1.032 1.064-2.217 1.688-3.593 1.91 1.699-5.658 2.381-12.123 2.598-17.718 0-.003 5.258-.003 5.258-.003zM10.585 23.815c-3.95-4.062-4.266-12.995-4.263-15.81h5.438c.217 6.077.921 12.356 2.508 17.733-1.414-.208-2.63-.837-3.683-1.923zm2.93-19.421h31.16c-.183 27.461-8.687 32.915-13.78 33.71a.903.903 0 0 0-.77.966l.484 5.637h-3.026l.48-5.63a.906.906 0 0 0-.774-.97C15.59 36.35 13.605 16.64 13.514 4.394z"/><path d="M29 23.118l3.894 2.791-1.488-4.515 3.896-2.791h-4.814L29 14.087l-1.488 4.516h-4.814l3.896 2.79-1.488 4.516z"/></g></g></svg>