<svg width="55" height="55" viewBox="0 0 55 55" xmlns="http://www.w3.org/2000/svg" xmlns:xlink="http://www.w3.org/1999/xlink"><title>ico-fg-lead</title><defs><path d="M54.576 26.483c.283.282.424.631.424 1.045 0 .377-.141.707-.424.99a1.421 1.421 0 0 1-1.046.423H41.942a1.35 1.35 0 0 1-.989-.424 1.355 1.355 0 0 1-.424-.989c0-.414.142-.763.424-1.045.283-.283.612-.424.99-.424H53.53c.414 0 .764.14 1.046.424zM33.294 48.386a.608.608 0 0 0 .198-.028.635.635 0 0 1 .198-.028 22.063 22.063 0 0 0 4.917-2.176 21.76 21.76 0 0 0 4.24-3.307 21.771 21.771 0 0 0 3.307-4.24 22.107 22.107 0 0 0 2.176-4.917 1.348 1.348 0 0 0-.141-1.103 1.48 1.48 0 0 0-.877-.706 1.276 1.276 0 0 0-1.074.141 1.77 1.77 0 0 0-.734.876 19.155 19.155 0 0 1-1.866 4.268 18.341 18.341 0 0 1-2.826 3.646 19.206 19.206 0 0 1-3.646 2.855 18.424 18.424 0 0 1-4.268 1.893c-.415.113-.716.34-.904.678-.19.34-.226.698-.113 1.074.113.34.301.604.565.792.263.189.546.282.848.282zm13.623-25.21a.618.618 0 0 0 .198-.028.629.629 0 0 1 .197-.029c.377-.113.669-.348.877-.706.206-.358.235-.725.084-1.103a20.36 20.36 0 0 0-2.12-4.917 21.828 21.828 0 0 0-3.306-4.24 21.828 21.828 0 0 0-4.24-3.307A22.136 22.136 0 0 0 33.69 6.67a1.348 1.348 0 0 0-1.103.141c-.358.208-.593.5-.706.877a1.41 1.41 0 0 0 .113 1.102c.188.358.47.593.848.706a18.867 18.867 0 0 1 4.324 1.866 18.387 18.387 0 0 1 6.472 6.472 18.88 18.88 0 0 1 1.866 4.324c.113.302.3.547.565.735.263.189.546.283.848.283zM27.472 40.529c.414 0 .763.142 1.045.424.283.283.424.632.424 1.046V53.53c0 .414-.14.763-.424 1.046a1.421 1.421 0 0 1-1.045.424c-.377 0-.707-.141-.99-.424a1.421 1.421 0 0 1-.423-1.046V42c0-.414.14-.763.424-1.046.282-.282.612-.424.989-.424zM28.517.424c.283.283.424.632.424 1.046v11.588c0 .377-.14.706-.424.989a1.421 1.421 0 0 1-1.045.424 1.36 1.36 0 0 1-.99-.424 1.355 1.355 0 0 1-.423-.99V1.47c0-.414.14-.763.424-1.046.282-.283.612-.424.989-.424.414 0 .763.141 1.045.424zM8.083 23.176c.301 0 .584-.094.848-.283a1.26 1.26 0 0 0 .509-.735 18.139 18.139 0 0 1 1.893-4.324 19.21 19.21 0 0 1 2.855-3.646 18.332 18.332 0 0 1 3.646-2.826 19.148 19.148 0 0 1 4.268-1.866 1.48 1.48 0 0 0 .876-.706c.207-.358.254-.725.141-1.102a1.775 1.775 0 0 0-.735-.877 1.276 1.276 0 0 0-1.074-.14 22.107 22.107 0 0 0-4.917 2.175 21.772 21.772 0 0 0-4.24 3.307 21.76 21.76 0 0 0-3.307 4.24A22.073 22.073 0 0 0 6.67 21.31a1.41 1.41 0 0 0 .113 1.103c.188.358.49.593.905.706a.8.8 0 0 1 .17.029c.074.019.15.028.225.028zm13.623 25.21c.301 0 .584-.093.848-.282a1.54 1.54 0 0 0 .565-.792 1.276 1.276 0 0 0-.141-1.074 1.506 1.506 0 0 0-.876-.678 18.393 18.393 0 0 1-4.268-1.893 19.147 19.147 0 0 1-6.5-6.501 18.385 18.385 0 0 1-1.894-4.268 1.504 1.504 0 0 0-.678-.876 1.276 1.276 0 0 0-1.074-.141c-.416.113-.717.349-.905.706a1.41 1.41 0 0 0-.113 1.103 22.041 22.041 0 0 0 2.176 4.917 21.703 21.703 0 0 0 3.307 4.24 21.705 21.705 0 0 0 4.24 3.307 22.034 22.034 0 0 0 4.917 2.176c.076 0 .142.01.198.028.057.02.122.028.198.028zm-7.66-19.869a1.421 1.421 0 0 1-1.045.424H1.47a1.42 1.42 0 0 1-1.046-.424A1.356 1.356 0 0 1 0 27.528c0-.414.141-.763.424-1.045a1.42 1.42 0 0 1 1.046-.424H13c.414 0 .763.14 1.046.424.282.282.424.631.424 1.045 0 .377-.142.707-.424.99z" id="a"/></defs><g fill="none" fill-rule="evenodd"><mask id="b" fill="#fff"><use xlink:href="#a"/></mask><path fill="#6D5ACC" mask="url(#b)" d="M-15-5h86v86h-86z"/></g></svg>