<svg width="44" height="44" viewBox="0 0 44 44" xmlns="http://www.w3.org/2000/svg" xmlns:xlink="http://www.w3.org/1999/xlink"><title>ico-fg-dashboard</title><defs><path d="M37.418 44c1.022-.038 1.896-.434 2.622-1.186.793-.822 1.188-1.804 1.188-2.948V19.23C43.076 17.792 44 15.959 44 13.73c0-2.23-.924-4.048-2.772-5.456V4.138c-.03-1.203-.425-2.186-1.188-2.948C39.277.427 38.31.03 37.136.002c-1.173-.029-2.156.367-2.948 1.188A4.1 4.1 0 0 0 33 4.138v4.136c-1.819 1.408-2.728 3.226-2.728 5.456 0 2.259.91 4.092 2.728 5.5v20.636c-.03 1.202.367 2.184 1.188 2.948.808.75 1.774 1.146 2.894 1.186h.336zm-15.143 0c1-.038 1.875-.434 2.629-1.186.821-.822 1.232-1.804 1.232-2.948V35.73c1.818-1.438 2.729-3.27 2.729-5.5s-.911-4.063-2.729-5.5V4.138c0-1.203-.41-2.186-1.232-2.948A4.305 4.305 0 0 0 22 .002c-1.115-.029-2.083.367-2.904 1.188-.822.821-1.231 1.804-1.231 2.948V24.73c-1.82 1.437-2.729 3.27-2.729 5.5 0 2.259.909 4.092 2.729 5.5v4.136c0 1.202.409 2.184 1.231 2.948A4.3 4.3 0 0 0 21.948 44h.327zM0 13.698c.009-2.215.933-4.023 2.772-5.424V4.138c0-1.144.396-2.127 1.189-2.948C4.75.369 5.72-.027 6.865.002 8.008.03 8.99.427 9.812 1.19c.821.762 1.217 1.745 1.188 2.948v4.136c1.849 1.408 2.772 3.226 2.772 5.456 0 2.229-.923 4.062-2.772 5.5v20.636a4.099 4.099 0 0 1-1.188 2.948A3.759 3.759 0 0 1 7.153 44H6.81c-1.15-.04-2.1-.436-2.85-1.186-.763-.764-1.16-1.746-1.188-2.948V19.23C.932 17.828.009 16.006 0 13.76v-.063zm35.728 26.168c0 .41.132.748.396 1.012s.601.396 1.012.396c.41 0 .733-.132.968-.396.234-.264.366-.602.396-1.012V20.462c-.47.117-.924.176-1.364.176-.44 0-.91-.059-1.408-.176v19.404zm0-32.824c.47-.117.939-.176 1.408-.176a5.3 5.3 0 0 1 1.364.176V4.138c0-.411-.132-.748-.396-1.012a1.18 1.18 0 0 0-.968-.352c-.381.029-.72.146-1.012.352-.293.205-.425.543-.396 1.012v2.904zM33 13.73c0 .352.059.733.176 1.144l.088.264c.117.381.293.718.528 1.012.205.352.484.66.836.924s.719.44 1.1.528c.47.176.939.264 1.408.264s.924-.088 1.364-.264c.41-.118.784-.301 1.122-.55.337-.249.623-.536.858-.858.235-.323.41-.675.528-1.056 0-.059.03-.147.088-.264.088-.411.132-.792.132-1.144a4.89 4.89 0 0 0-.132-1.1l-.088-.264a3.567 3.567 0 0 0-.528-1.056 3.966 3.966 0 0 0-.858-.858 3.486 3.486 0 0 0-1.122-.55 3.875 3.875 0 0 0-1.364-.264c-.44 0-.91.088-1.408.264-.381.117-.748.3-1.1.55-.352.249-.631.55-.836.902-.235.293-.411.63-.528 1.012l-.088.264c-.117.41-.176.777-.176 1.1zM20.636 39.866c0 .41.133.748.396 1.012.264.264.587.396.968.396.38 0 .704-.132.968-.396s.397-.602.397-1.012v-2.904a5.28 5.28 0 0 1-1.365.176c-.47 0-.924-.059-1.364-.176v2.904zm0-16.324c.44-.117.895-.176 1.364-.176.47 0 .924.059 1.365.176V4.138c0-.411-.133-.748-.397-1.012A1.18 1.18 0 0 0 22 2.774a1.75 1.75 0 0 0-.968.352c-.263.205-.396.543-.396 1.012v19.404zm-2.771 6.688c0 .352.057.733.175 1.144l.088.264c.117.381.293.733.528 1.056.235.322.513.616.837.88.322.264.703.44 1.143.528a3.64 3.64 0 0 0 2.729 0c.409-.118.784-.3 1.121-.55a3.98 3.98 0 0 0 .858-.858c.235-.323.41-.675.528-1.056 0-.059.029-.147.089-.264.116-.41.175-.792.175-1.144 0-.352-.06-.719-.175-1.1l-.089-.264a3.567 3.567 0 0 0-.528-1.056 3.793 3.793 0 0 0-.836-.836 2.64 2.64 0 0 0-1.143-.572 3.646 3.646 0 0 0-2.729 0 2.63 2.63 0 0 0-1.143.572 8.161 8.161 0 0 0-.837.88c-.235.293-.41.63-.528 1.012l-.088.264a4.03 4.03 0 0 0-.175 1.1zM5.5 39.866c0 .41.132.748.397 1.012.263.264.586.396.968.396.38 0 .717-.132 1.011-.396.293-.264.425-.602.396-1.012V20.462c-.47.117-.94.176-1.407.176a5.29 5.29 0 0 1-1.365-.176v19.404zm0-32.824c.47-.117.924-.176 1.365-.176.439 0 .908.059 1.407.176V4.138c0-.411-.132-.748-.396-1.012s-.602-.382-1.011-.352c-.412.029-.735.146-.968.352-.236.205-.368.543-.397 1.012v2.904zM2.772 13.73c0 .352.045.733.132 1.144l.089.264c.116.381.292.733.527 1.056.235.322.528.616.88.88s.719.44 1.1.528c.47.176.924.264 1.365.264a4.24 4.24 0 0 0 1.407-.264 3.91 3.91 0 0 0 1.1-.55c.352-.249.63-.55.836-.902.235-.294.41-.631.528-1.012l.088-.264c.117-.411.176-.792.176-1.144 0-.352-.06-.719-.176-1.1a.66.66 0 0 1-.088-.264 3.027 3.027 0 0 0-.528-1.012 3.123 3.123 0 0 0-.836-.924 2.93 2.93 0 0 0-1.1-.528 3.987 3.987 0 0 0-1.407-.264c-.47 0-.925.088-1.365.264-.411.117-.77.3-1.078.55-.307.249-.61.55-.902.902-.235.293-.411.63-.527 1.012l-.09.264c-.086.41-.131.777-.131 1.1z" id="a"/></defs><g transform="rotate(-90 22 22)" fill="none" fill-rule="evenodd"><mask id="b" fill="#fff"><use xlink:href="#a"/></mask><path fill="#6D5ACC" mask="url(#b)" d="M-13.333-13.333h74.666v74.67h-74.666z"/></g></svg>