<svg width="18" height="18" viewBox="0 0 18 18" xmlns="http://www.w3.org/2000/svg"><title>ico_checklist</title><path d="M16.145 8.96c0 3.979-3.23 7.233-7.176 7.233-3.947 0-7.175-3.254-7.175-7.232C1.794 4.15 6.413.696 10.942 2L12.377.553C6.324-1.481 0 2.271 0 8.96 0 13.932 4.036 18 8.969 18s8.969-4.068 8.969-9.04h-1.793zm1.582-5.46c.835-.84-.434-2.12-1.268-1.278l-7.886 7.946-3.238-3.263c-.834-.841-2.102.437-1.268 1.278l3.873 3.903a.891.891 0 0 0 1.268 0l8.52-8.587V3.5z" fill="#3DC674" fill-rule="evenodd"/></svg>