<svg width="45" height="48" viewBox="0 0 45 48" xmlns="http://www.w3.org/2000/svg"><title>Group</title><g fill="#755CF6" fill-rule="evenodd"><path d="M7.421 0h30.947C42.126 0 45 3.12 45 7.2v24c0 4.08-2.874 7.2-6.632 7.2V48L19.8 38.4H7.421C3.663 38.4.79 35.28.79 31.2v-24C.79 3.12 3.663 0 7.421 0zm-2.21 31.2c0 1.44.884 2.4 2.21 2.4h13.263l13.263 6.72V33.6h4.421c1.327 0 2.21-.96 2.21-2.4v-24c0-1.44-.883-2.4-2.21-2.4H7.421c-1.326 0-2.21.96-2.21 2.4v24z"/><path d="M36.158 16.457H9.632v-4.114h26.526zm0 9.6H9.632v-4.114h26.526z"/></g></svg>