<svg id="Layer_1" xmlns="http://www.w3.org/2000/svg" viewBox="0 0 22 22"><style>.st0{fill:#0c76b3}</style><g id="Icons"><path class="st0" d="M12.2 9.2V7.7c0-.2-.1-.3-.3-.3H8.2c-.2 0-.3.1-.3.3v13.6c0 .2.1.3.3.3h3.9c.2 0 .3-.1.3-.3v-6.4c0-.5 0-1.1.1-1.6.1-.6.3-1.1.7-1.6.5-.6 1.2-.7 1.9-.7 1 0 1.6.5 1.9 1.5.2.6.2 1.3.2 1.9v6.9c0 .3 0 .3.3.3h3.8c.4 0 .4 0 .4-.4v-8.3c0-.8-.1-1.7-.4-2.5-.4-1.3-1-2.3-2.3-2.8-1.3-.6-2.6-.7-4-.3-1.2.2-2.2.9-2.8 1.9zm-7 5.3V7.7c0-.2-.1-.3-.3-.3H1.1c-.2 0-.3.1-.3.3v13.5c0 .2.1.3.3.3h3.8c.2 0 .3-.1.3-.3v-6.7zM.4 3C.4 4.4 1.6 5.6 3 5.6c1.5 0 2.6-1.1 2.6-2.6S4.4.4 3 .4C1.4.4.4 1.7.4 3z" id="Icons_1_"/></g></svg>