<svg id="Layer_1" xmlns="http://www.w3.org/2000/svg" viewBox="0 0 542 120"><style>.st0{fill:#a5d6e0}.st1{fill:#f7ad3a}.st2{fill:#f5c6ae}.st3{fill:#f4adac}.st4{fill:#c5bdff}.st5{fill:#eb8e5e}.st6{fill:#ed6f57}.st7{fill:#4bacc3}.st8{fill:#ed7aa7}.st9{fill:#ea5c58}.st10{fill:#6d5acc}.st11{fill:#886fff}.st12{fill:#fff}</style><title>logo-Tubular-2017</title><path class="st0" d="M10.5 93.2c-.7-2.3-1.1-4.8-1.1-7.3 0-4.9 1.7-9.4 4.6-13-2.4-8.4-2.5-17.4-.1-25.9-5 1.8-9.5 4.4-13.5 7.7-1.1 13.3 2.2 27 10.1 38.5"/><path class="st1" d="M21.7 88.4c1.1 3.6 3.9 6.5 7.4 7.7-1.1-.9-2.1-1.8-3.1-2.8-1.6-1.6-3-3.2-4.3-4.9"/><path class="st2" d="M21.7 88.4c-3.6-4.7-6.2-10-7.8-15.5-2.8 3.6-4.6 8.1-4.6 13 0 2.6.4 5 1.1 7.3 2 3 4.4 5.8 7 8.5 3.3 3.3 6.9 6.1 10.7 8.5 2 .5 4.1.8 6.3.8 5.9 0 11.5-1.7 16.1-4.7-7.7-1.5-15.2-4.9-21.6-10.2-3.3-1.3-6.1-4.1-7.2-7.7"/><path class="st3" d="M93.2 26.1c15.9 15.9 18.1 40.4 6.7 58.7-1 9.1-4 17.6-8.5 25.1 3.6-2.3 7.1-5 10.2-8.2 23.2-23.2 23.2-60.9 0-84.1C85.1 1.1 61.1-3.7 40.3 3.4c8.2 1.7 15.8 4.8 22.8 8.9 11 .9 21.7 5.4 30.1 13.8"/><path class="st4" d="M.4 54.7c4-3.3 8.5-6 13.5-7.7 2.1-7.7 6.2-14.9 12.2-20.9 10.2-10.2 23.8-14.7 37.2-13.7-7-4.1-14.6-7.2-22.8-8.9-8.3 2.8-16.2 7.6-22.8 14.2C7.2 28 1.5 41.2.4 54.7m100.9-37.4c1.1 2 2 4.2 2.5 6.6 1 4.6.3 9.2-1.7 13.2 3.9 7.4 5.8 15.8 5.3 24.2 4.3-2.7 8-6.2 11-10.2-1.6-12.7-7.5-24.7-17.1-33.8m-8.1 75.9c-11.5 11.5-27.6 15.9-42.5 13.1-4.7 3-10.2 4.7-16.1 4.7-2.2 0-4.3-.3-6.3-.8 19.3 12 44 11.9 63.2-.3 4.5-7.5 7.5-16 8.5-25.1-2 2.9-4.2 5.8-6.8 8.4"/><path class="st1" d="M96.9 70.3c1.8-2.5 2.3-5.8 1.4-8.7 0 1.1-.1 2.3-.3 3.5-.3 1.7-.7 3.5-1.1 5.2"/><path class="st5" d="M96.9 70.3c-1.3 4.7-3.4 9.1-6.2 12.9 3.8.1 7.6-1.1 10.8-3.6 1.7-1.3 3.1-2.8 4.3-4.4.9-2.8 1.6-5.8 2-8.9.5-3.8.5-7.6.2-11.3-.7-1.6-1.5-3.1-2.6-4.5-3-3.9-6.9-6.6-11.2-8.2 2.9 5.8 4.4 12.4 4.2 19.2.8 3 .3 6.2-1.5 8.8"/><path class="st6" d="M85.6 101.2c-4.2-.9-8.2-2.6-11.8-4.9-6.1 2.5-12.9 3.5-19.8 2.6-11.8-1.5-21.6-8.2-27.7-17.4.8 6.6 2.6 13.2 5.6 19.4 6.1 4 13.1 6.8 20.8 7.8 11.9 1.4 23.5-1.5 32.9-7.5"/><path class="st7" d="M105.7 75.2c-1.2 1.6-2.6 3.1-4.3 4.4-3.2 2.5-7 3.6-10.8 3.6-4.3 5.8-10.2 10.4-16.9 13.1 3.6 2.4 7.7 4 11.8 4.9 9.4-6 16.6-15.1 20.2-26"/><path class="st8" d="M64.2 21.1c13.3 1.8 24.2 10.1 29.9 21.3 4.3 1.6 8.2 4.3 11.2 8.2 1.1 1.4 2 3 2.6 4.5C106 36.5 93.6 20.4 76 13.9c-7.2.8-14.2 3.2-20.7 7.1 2.9-.4 5.9-.3 8.9.1"/><path class="st7" d="M18.4 89.2c-.6-2-.9-4-.9-6.2 0-4.1 1.4-7.9 3.8-10.9-2-7.1-2.1-14.6-.1-21.7-4.2 1.5-8 3.7-11.3 6.5-1 11.1 1.9 22.6 8.5 32.3"/><path class="st1" d="M27.8 85.1c.9 3 3.2 5.4 6.2 6.5-.9-.8-1.8-1.5-2.6-2.4-1.3-1.3-2.5-2.7-3.6-4.1"/><path class="st5" d="M27.8 85.1c-3-4-5.2-8.4-6.5-13-2.4 3-3.8 6.8-3.8 10.9 0 2.1.3 4.2.9 6.2 1.7 2.5 3.7 4.9 5.9 7.1 2.8 2.8 5.8 5.1 9 7.1 1.7.4 3.5.7 5.3.7 5 0 9.6-1.5 13.6-4-6.5-1.2-12.8-4.1-18.1-8.6-3-1-5.3-3.4-6.3-6.4"/><path class="st9" d="M87.9 32.7c13.4 13.4 15.3 34 5.7 49.4-.9 7.7-3.4 14.8-7.2 21.1 3.1-1.9 6-4.2 8.6-6.9 19.5-19.5 19.5-51.2 0-70.7-13.9-13.9-34-17.9-51.5-12 6.9 1.5 13.3 4 19.2 7.5 9.2.7 18.2 4.6 25.2 11.6"/><path class="st10" d="M9.9 56.8c3.3-2.8 7.1-5 11.3-6.5 1.8-6.5 5.2-12.5 10.2-17.6 8.6-8.6 20.1-12.4 31.3-11.6-5.9-3.5-12.3-6-19.2-7.5-7 2.4-13.6 6.4-19.2 12-8.7 8.7-13.5 19.8-14.4 31.2m84.9-31.5c.9 1.7 1.7 3.6 2.1 5.6.8 3.9.2 7.8-1.4 11.1 3.3 6.2 4.8 13.3 4.4 20.4 3.6-2.3 6.7-5.2 9.3-8.6-1.4-10.7-6.4-20.9-14.4-28.5"/><path class="st11" d="M87.9 89.2c-9.7 9.7-23.2 13.4-35.7 11-3.9 2.5-8.6 4-13.6 4-1.8 0-3.6-.3-5.3-.7 16.2 10.1 37 10 53.1-.2 3.8-6.3 6.3-13.5 7.2-21.1-1.6 2.4-3.5 4.8-5.7 7"/><path class="st5" d="M100.3 57.1c-.6-1.3-1.3-2.6-2.2-3.8-2.5-3.3-5.8-5.6-9.4-6.9 2.5 4.9 3.7 10.4 3.5 16.2 0 1-.1 1.9-.2 2.9-.2 1.5-.5 3-.9 4.4-1.1 4-2.9 7.6-5.2 10.8 3.2.1 6.4-.9 9.1-3 1.4-1.1 2.6-2.3 3.6-3.7.8-2.4 1.4-4.9 1.7-7.5.3-3.2.3-6.4 0-9.4z"/><path class="st11" d="M26.5 56.9c2-15.5 14.6-27.1 29.5-28.5 5.5-3.3 11.4-5.2 17.4-5.9-2.8-1-5.8-1.8-8.8-2.2-22.6-3-43.3 13-46.3 35.5-2.1 16.1 5.4 31.3 18.1 39.7-2.5-5.2-4.1-10.7-4.7-16.3-4.2-6.4-6.2-14.2-5.2-22.3"/><path class="st6" d="M81.5 95.8c-3.5-.8-6.9-2.2-9.9-4.1-5.1 2.1-10.8 2.9-16.7 2.1-9.9-1.3-18.2-6.9-23.3-14.7.7 5.6 2.2 11.1 4.7 16.3 5.1 3.4 11 5.7 17.5 6.6 10.1 1.4 19.8-1.1 27.7-6.2"/><path class="st7" d="M98.4 74c-1 1.4-2.2 2.6-3.6 3.7-2.7 2.1-5.9 3-9.1 3-3.6 4.9-8.5 8.7-14.2 11 3.1 2 6.4 3.4 9.9 4.1 8-5 14-12.6 17-21.8"/><path class="st8" d="M63.5 28.5C74.7 30 83.9 37 88.6 46.4c3.6 1.3 6.9 3.6 9.4 6.9.9 1.2 1.6 2.5 2.2 3.8-1.6-15.7-12-29.2-26.8-34.6-6 .7-12 2.7-17.4 5.9 2.5-.3 5-.3 7.5.1"/><path class="st12" d="M152.3 81.7V39h-16.4v-6.9h40.3V39h-16.4v42.8h-7.5v-.1zm62.2.9c-10.2 0-20.5-6.4-20.5-20.8V32.2h7.4v29.6c0 9.6 6.6 13.8 13.1 13.8 6.4 0 12.9-4.3 12.9-13.9V32.1h7.4v29.7c0 10.4-6.2 20.8-20.3 20.8M280 52.8c3.4 0 9.2-.8 9.2-6.4 0-4.6-3.6-7.4-9.5-7.4h-14.3v13.8H280zm-.2 21.8c5 0 10.9-1.2 10.9-7.1-.1-5.3-5.6-7.8-10.7-7.8h-14.6v14.9h14.4zM258 81.7V32h21.8c10.3 0 16.9 5.6 16.9 14.2 0 4.2-2.2 7.8-5.9 9.8 5.1 2.3 7.5 7.4 7.5 11.6 0 9-6.5 14-18.4 14l-21.9.1zm80.9.9c-10.2 0-20.5-6.4-20.5-20.8V32.2h7.4v29.6c0 9.6 6.6 13.8 13.1 13.8 6.4 0 12.9-4.3 12.9-13.9V32.1h7.4v29.7c0 10.4-6.3 20.8-20.3 20.8m43.4-.9V32h7.5v42.6H416v7.1h-33.7zm83-17.6L455 40.8l-10.3 23.4 20.6-.1zm7.8 17.6l-4.7-10.6h-26.5l-4.7 10.6H429L451.3 32h7.7l22.3 49.7h-8.2zm48.5-24.2c6.2 0 9.8-3.4 9.8-9.2 0-2.5-.9-5-2.7-6.7-1.7-1.8-4.1-2.7-6.9-2.7h-15.1v18.6h14.9zm10.7 24.2l-15-17.3h-10.6v17.3h-7.5V32h22.6c11.7 0 17.1 8.4 17.1 16.2.1 6.7-3.4 14.1-13.1 15.5l16 18h-9.5z"/></svg>