<svg id="_x2014_ÎÓÈ_x5F_1" xmlns="http://www.w3.org/2000/svg" viewBox="0 0 130 124.1"><style>.st0,.st1{fill-rule:evenodd;clip-rule:evenodd;fill:#d7eef6}.st1{fill:#91ddf2}</style><path class="st0" d="M49.6 98.5c-2.3 2.3-5 3.8-7.9 4.6-5.9 1.6-12.9.5-19.8-3.6-10-6.1-15.2-15.2-17.3-24.8-2.1-9.6-1-19.6 1.6-27.7 2.5-7.9 6.5-14.4 11.7-19.4l11.5-11.5C34.9 11 40.3 8 47.9 5.8c.5-.1 1.1-.3 1.6-.4 3-.5 5.5-.8 8.5-1 1.3 4.2 2.6 8.5 3.9 12.7L50.4 28.6c-.7.1-1.5.2-2.2.4-1 3.4-1 6.4-.6 9.9.4.2.7.4 1.1.6 4.6 3 7.6 5.8 10.9 10.2 3.6 5.1 5.7 9.7 6.9 15.9.6 4 .7 6.9 0 10.8-.6 2.8-1.3 4.6-2.7 7.1-.9 1.4-1.7 2.4-2.9 3.7-3.8 3.8-7.5 7.6-11.3 11.3z"/><path class="st1" d="M6.2 47c3.1-9.7 8.5-17.4 15.5-22.6 7-5.2 15.5-8.1 24.8-8.5 1.3 4.2 2.6 8.5 3.9 12.7-6.2.7-11.4 4.6-13.5 11.3-1 3.3-1.2 6.8-.7 10.4.4.2.7.4 1.1.6 6.9 4.2 12.2 10.7 15.3 17.9 3.1 7.1 4 14.9 1.9 21.6-2.1 6.7-6.8 11-12.7 12.7-5.9 1.6-12.9.5-19.8-3.6C12 93.4 6.8 84.3 4.7 74.7 2.5 65.1 3.6 55.1 6.2 47z"/><path class="st0" d="M110 115.7c-2.3 2.3-5 3.8-7.9 4.6-5.9 1.6-12.9.5-19.8-3.6-10-6.1-15.2-15.2-17.3-24.8-2.1-9.6-1-19.6 1.6-27.7 2.5-7.9 6.5-14.4 11.7-19.4l11.5-11.5c5.5-5.1 10.9-8.1 18.5-10.2.5-.1 1.1-.3 1.6-.4 2.9-.6 5.5-.9 8.5-1.1 1.3 4.2 2.6 8.5 3.9 12.7l-11.5 11.5c-.7.1-1.5.2-2.2.4-1 3.4-1 6.4-.6 9.9.4.2.7.4 1.1.6 4.6 3 7.6 5.8 10.9 10.2 3.6 5.1 5.7 9.7 6.9 15.9.6 4 .7 6.9 0 10.8-.6 2.8-1.3 4.6-2.7 7.1-.9 1.4-1.7 2.4-2.9 3.7-3.7 3.8-7.5 7.5-11.3 11.3z"/><path class="st1" d="M66.6 64.1c3.1-9.7 8.5-17.4 15.5-22.6 7-5.2 15.5-8.1 24.8-8.5 1.3 4.2 2.6 8.5 3.9 12.7-6.2.7-11.4 4.6-13.5 11.3-1 3.3-1.2 6.8-.7 10.4.4.2.7.4 1.1.6 6.9 4.2 12.2 10.7 15.3 17.9 3.1 7.1 4 14.9 1.9 21.6-2.1 6.7-6.8 11-12.7 12.7-5.9 1.6-12.9.5-19.8-3.6-10-6.1-15.2-15.2-17.3-24.8-2.1-9.5-1.1-19.5 1.5-27.7z"/></svg>