<svg width="335" height="95" viewBox="0 0 335 95" xmlns="http://www.w3.org/2000/svg"><title>Group 8</title><g fill="none" fill-rule="evenodd"><path d="M47.728 24.838l2.093-2.967a6.931 6.931 0 0 0 4.899 2.024c1.357 0 2.185-.529 2.185-1.265 0-.805-1.15-1.058-2.622-1.357-2.53-.506-6.072-1.196-6.072-4.968 0-2.576 2.185-4.876 6.118-4.876 2.461 0 4.6.736 6.233 2.139L58.4 16.397c-1.288-1.058-2.967-1.587-4.485-1.587-1.15 0-1.656.46-1.656 1.104 0 .736 1.173.989 2.645 1.334 2.53.529 6.026 1.288 6.026 4.899 0 3.082-2.277 5.129-6.394 5.129-3.105 0-5.267-.966-6.808-2.438zM69.47 20.79v-9.131h4.025v8.993c0 1.817 1.081 3.128 3.243 3.128 2.116 0 3.22-1.311 3.22-3.128v-8.993h4.002v9.108c0 3.818-2.323 6.509-7.222 6.509-4.945 0-7.268-2.714-7.268-6.486zM93.42 27V11.659h7.682c3.45 0 5.336 2.323 5.336 5.106 0 2.76-1.886 5.083-5.336 5.083h-3.726V27H93.42zm8.993-10.235c0-1.058-.782-1.656-1.84-1.656h-3.197v3.289h3.197c1.058 0 1.84-.598 1.84-1.633zM114.909 27V11.659h11.247v3.45h-7.291v2.392h7.13v3.45h-7.13v2.599h7.291V27h-11.247zm28.803 0l-2.576-5.152h-2.024V27h-3.956V11.659h7.682c3.404 0 5.336 2.254 5.336 5.106 0 2.668-1.633 4.094-3.059 4.6L148.243 27h-4.531zm.437-10.258c0-1.035-.874-1.633-1.909-1.633h-3.128v3.289h3.128c1.035 0 1.909-.575 1.909-1.656zm20.431 10.534c-4.715 0-8.303-3.22-8.303-7.935 0-4.738 3.588-7.935 8.303-7.935 3.703 0 5.681 2.093 6.693 4.117l-3.404 1.61c-.506-1.219-1.817-2.231-3.289-2.231-2.507 0-4.278 1.932-4.278 4.439s1.771 4.439 4.278 4.439c1.472 0 2.783-1.012 3.289-2.231l3.404 1.61c-.989 1.978-2.99 4.117-6.693 4.117zM190.002 27v-6.164h-6.371V27h-3.956V11.659h3.956v5.727h6.371v-5.727h3.956V27h-3.956zm23.835 0l-.759-2.208h-6.049L206.27 27h-4.485l5.773-15.341h4.968L218.322 27h-4.485zm-3.795-11.431l-1.955 5.773h3.91l-1.955-5.773zM234.705 27l-2.576-5.152h-2.024V27h-3.956V11.659h7.682c3.404 0 5.336 2.254 5.336 5.106 0 2.668-1.633 4.094-3.059 4.6L239.236 27h-4.531zm.437-10.258c0-1.035-.874-1.633-1.909-1.633h-3.128v3.289h3.128c1.035 0 1.909-.575 1.909-1.656zm12.128 2.599c0-4.876 3.726-7.935 8.303-7.935 3.427 0 5.497 1.817 6.555 3.726l-3.312 1.725c-.575-1.012-1.748-1.955-3.243-1.955-2.507 0-4.278 1.932-4.278 4.439s1.771 4.439 4.278 4.439c1.127 0 2.277-.46 2.829-.92v-1.196h-3.45v-3.473h7.406v6.095c-1.656 1.817-3.887 2.99-6.785 2.99-4.577 0-8.303-3.059-8.303-7.935zM271.381 27V11.659h11.247v3.45h-7.291v2.392h7.13v3.45h-7.13v2.599h7.291V27h-11.247zM9.99 63.832c.576-.18 1.512-.108 2.448.504 2.196 1.44 3.528 3.816 4.752 6.768 4.752 1.98 10.512 4.428 11.7 7.56.324.828.324 1.584-.828 2.448-.756.54-1.836 1.08-2.988 1.08-.432 0-1.044-.108-1.692-.324-3.096-1.116-5.292-4.032-6.696-7.524l-1.26-.54c.684.936 1.008 1.872 1.008 2.952 0 1.8-1.368 2.592-2.88 2.592-.756 0-1.62-.144-2.52-.468-2.268-.828-5.904-2.592-8.964-4.824-.612-.468-.648-1.008-.072-1.404.504-.36 1.152-.684 1.728-.684.9 0 1.944.432 3.276 1.26 1.944 1.224 3.42 1.98 5.112 2.664 1.296.504 2.736.828 2.736-.108 0-.936-2.124-2.556-5.112-4.32-4.068-2.412-6.264-3.384-7.56-4.248-.648-.504-.72-.972-.324-1.368.54-.54 1.08-.684 1.836-.684.72 0 1.512.18 2.412.648 2.016 1.044 5.508 2.916 8.928 4.392-1.332-2.196-3.168-4.068-4.788-5.22-.648-.468-.72-1.008-.252-1.152zm9.036 11.448a11.973 11.973 0 0 0 4.14 3.708c1.692.9 3.168 1.152 3.492.792.216-.252-.828-1.008-2.592-2.016-1.332-.756-3.096-1.62-5.04-2.484zm-8.712-39.348c.36-.216 1.332-.216 2.376.324 2.088 1.044 3.888 3.6 3.888 5.832 0 2.052-1.116 3.096-2.628 3.312 1.296 1.188 2.484 2.844 2.484 4.644 0 1.872-1.368 2.556-2.916 2.556-.756 0-1.62-.144-2.484-.432-.72-.252-1.62-.612-2.448-1.044.252.72.396 1.44.396 2.196 3.456.972 7.452 3.96 7.452 6.984 0 1.188-.468 2.556-1.836 3.564-.9.684-2.016.972-3.168.972-1.512 0-3.384-.54-5.004-1.476-2.304-1.332-4.464-3.708-4.644-5.94-.072-1.224.288-1.944 1.332-2.736.216-.18.36-.36.54-.54.756-.72 1.692-1.296 3.888-1.152-.288-1.62-1.872-3.276-3.492-4.392l-1.944-1.332c-.648-.432-.684-.9-.108-1.404a2.872 2.872 0 0 1 1.728-.648c.864 0 1.944.432 3.276 1.188 1.98 1.224 3.42 2.016 5.112 2.736.684.252 1.332.396 1.872.396.504 0 .864-.108.864-.432 0-1.008-2.268-2.844-5.256-4.68-3.456-2.196-5.616-2.952-7.524-4.284-.648-.432-.756-1.008-.216-1.476.432-.36 1.08-.612 1.872-.612.684 0 1.44.144 2.304.576 1.476.684 3.852 2.412 5.94 3.276.756.36 1.512.576 2.124.576.648 0 1.008-.216 1.008-.684 0-1.224-2.34-3.348-4.752-4.644-.684-.324-.72-.828-.036-1.224zM6.93 55.696c-.828-.36-1.692-.504-2.16-.504-.54 0-.756.288-.756.54 0 .216.288.54.864.54.648 0 1.584-.18 2.052-.576zm6.12 6.336c1.008 0 1.512-.18 1.512-.756 0-.9-1.296-2.448-3.744-3.816-1.008-.576-1.836-.9-2.664-1.188-.612.936-1.872 1.872-2.88 2.196.72.756 1.62 1.404 2.772 2.088 1.692.936 3.672 1.476 5.004 1.476zM.234 31.324c0-.756.432-1.08 1.26-1.08.684 0 1.728.252 2.88.648-.216-.864-.72-1.836-1.512-2.916-.432-.612-.504-.972-.036-1.44.504-.504 1.44-1.044 2.304-1.044.432 0 .936.18 1.404.576 2.232 1.944 5.076 3.996 7.2 3.996.936 0 1.512-.288 1.512-.792 0-1.224-2.016-2.664-4.5-3.78-.648-.288-.684-.792-.036-1.116.504-.252 1.368-.288 2.34.108 2.052.864 3.6 2.988 3.6 5.04 0 2.196-1.548 3.384-3.492 3.384-2.304 0-5.076-1.908-7.272-3.708.396.936.54 1.836.576 2.628 4.68 2.7 7.992 4.752 10.476 5.256.648.144.972.612.288 1.26-.576.612-1.332.9-2.124.9s-1.656-.252-2.592-.756c-1.152-.612-4.104-2.448-6.552-4.428-.396.432-.864.684-1.332.684-1.836 0-4.392-2.304-4.392-3.42zm38.807 54.968l7.462-10.578c3.936 3.936 10.004 7.216 17.466 7.216 4.838 0 7.79-1.886 7.79-4.51 0-2.87-4.1-3.772-9.348-4.838-9.02-1.804-21.648-4.264-21.648-17.712 0-9.184 7.79-17.384 21.812-17.384 8.774 0 16.4 2.624 22.222 7.626l-7.708 10.086c-4.592-3.772-10.578-5.658-15.99-5.658-4.1 0-5.904 1.64-5.904 3.936 0 2.624 4.182 3.526 9.43 4.756 9.02 1.886 21.484 4.592 21.484 17.466 0 10.988-8.118 18.286-22.796 18.286-11.07 0-18.778-3.444-24.272-8.692zM132.487 94l-2.706-7.872h-21.566L105.509 94h-15.99l20.582-54.694h17.712L148.477 94h-15.99zm-13.53-40.754l-6.97 20.582h13.94l-6.97-20.582zM155.495 94V39.306h14.104V81.7h21.976V94h-36.08zm46.378 0V39.306h40.098v12.3h-25.994v8.528h25.42v12.3h-25.42V81.7h25.994V94h-40.098zm47.362-7.708l7.462-10.578c3.936 3.936 10.004 7.216 17.466 7.216 4.838 0 7.79-1.886 7.79-4.51 0-2.87-4.1-3.772-9.348-4.838-9.02-1.804-21.648-4.264-21.648-17.712 0-9.184 7.79-17.384 21.812-17.384 8.774 0 16.4 2.624 22.222 7.626l-7.708 10.086c-4.592-3.772-10.578-5.658-15.99-5.658-4.1 0-5.904 1.64-5.904 3.936 0 2.624 4.182 3.526 9.43 4.756 9.02 1.886 21.484 4.592 21.484 17.466 0 10.988-8.118 18.286-22.796 18.286-11.07 0-18.778-3.444-24.272-8.692z" fill="#6D5ACC"/><path d="M327.768.02a.876.876 0 0 0-.496.305l-29.056 35.413a.893.893 0 0 0-.133.958.882.882 0 0 0 .82.508h11.144l-6.714 23.654a.887.887 0 0 0 .423 1.033.873.873 0 0 0 1.09-.203l29.937-32.757a.89.89 0 0 0 .139-.945.875.875 0 0 0-.798-.52h-11.226l5.916-26.367A.883.883 0 0 0 327.768.02zM326.279 4l-5.312 23.644a.876.876 0 0 0 .168.737.857.857 0 0 0 .677.334H332L306.23 57l5.966-21.035a.896.896 0 0 0-.154-.76.876.876 0 0 0-.69-.339H301L326.28 4z" fill="#886FFF"/></g></svg>