<svg id="Layer_3_copy" xmlns="http://www.w3.org/2000/svg" viewBox="0 0 3733.9 3705.2"><style>.st0,.st1,.st2{fill:none;stroke:#fff;stroke-width:6;stroke-miterlimit:10}.st1{stroke-dasharray:0,25.8448,0,0}.st2{stroke-dasharray:25.8647,0,0,25.8448,0,0}.st3{fill:#fff}.st10,.st4,.st5,.st6,.st7,.st8,.st9{fill:none;stroke:#fff;stroke-width:8;stroke-miterlimit:10}.st5{stroke-dasharray:1.0068e-2,26.1562,1.0068e-2,0}.st6{stroke-dasharray:26.1763,0,1.0068e-2,26.1562,1.0068e-2,0}.st7{stroke-dasharray:0,25.3756,0,0}.st8{stroke-dasharray:25.3951,0,0,25.3756,0,0}.st9{stroke-dasharray:0,25.0262,0,0}.st10{stroke-dasharray:25.0455,0,0,25.0262,0,0}.st11{stroke-dasharray:0,25.7397,0,0}.st11,.st12,.st13,.st14,.st15,.st16,.st17,.st18,.st19,.st20{fill:none;stroke:#fff;stroke-width:8;stroke-miterlimit:10}.st12{stroke-dasharray:25.7595,0,0,25.7397,0,0}.st13{stroke-dasharray:1.0132e-2,26.3221,1.0132e-2,0}.st14{stroke-dasharray:26.3423,0,1.0132e-2,26.3221,1.0132e-2,0}.st15{stroke-dasharray:0,25.7564,0,0}.st16{stroke-dasharray:25.7763,0,0,25.7564,0,0}.st17{stroke-dasharray:1.0127e-2,26.3104,1.0127e-2,0}.st18{stroke-dasharray:26.3306,0,1.0127e-2,26.3104,1.0127e-2,0}.st19{stroke-dasharray:1.0155e-2,26.3833,1.0155e-2,0}.st20{stroke-dasharray:26.4036,0,1.0155e-2,26.3833,1.0155e-2,0}</style><path class="st0" d="M605.4 1341l9.2 9"/><path class="st1" d="M614.6 1350l17.4 17.2"/><path class="st2" d="M632.7 1367.9c217.1 212.4 428.3 421.7 649.4 640.8 215.2 213.2 420.5 411.6 634.6 626.7 2 2 4.9 3.9 7.9 5.9 336.6 333.6 660.3 651.4 989.6 977"/><path class="st3" d="M575.7 1311.6l25 58.5 7-26.9 26.8-7.4z"/><path class="st0" d="M946.3 2550.3l9.1 9"/><path class="st1" d="M955.4 2559.3l17.5 17.2"/><path class="st2" d="M973.6 2577.2c58.9 58.2 116.1 115.5 176.4 174.7 51.3 50.3 99.7 97.7 150 148.1 4.9 3.9 8.9 7.9 13.8 11.8 58.2 58.2 113.5 111.5 171.7 169.8 11.8 12.8 23.7 23.7 36.5 35.5 79 78 153 154 231.9 229 14.8 18.8 35.5 32.6 50.3 51.3 105.6 101.7 208.3 205.3 312.9 307.8"/><path class="st3" d="M916.5 2520.9l25.1 58.5 6.9-27 26.9-7.3z"/><path class="st4" d="M79.4 119.1l9 9.1"/><path class="st5" d="M88.4 128.2l17.5 17.7"/><path class="st6" d="M106.6 146.6l834.9 845.7"/><path class="st4" d="M941.5 992.3l9 9.2 9.6-8.6"/><path class="st7" d="M960.1 992.9l17.9-16"/><path class="st8" d="M978.8 976.2L1203 775.7"/><path class="st4" d="M1203 775.7l9.6-8.5.9 12.8"/><path class="st9" d="M1213.5 780l1.9 23.6"/><path class="st10" d="M1215.4 804.6l49.2 640.8"/><path class="st4" d="M1264.6 1445.4l.9 12.8 7.9-10.1"/><path class="st11" d="M1273.4 1448.1l14.9-19.4"/><path class="st12" d="M1288.9 1427.9l433.9-564.4"/><path class="st4" d="M1722.8 863.5l7.8-10.1-.2 12.8"/><path class="st13" d="M1730.4 866.2l-.4 25"/><path class="st14" d="M1730 892.2L1701.6 2764"/><path class="st4" d="M1701.6 2764l-.2 12.8s2.4-3.7 7-10.7"/><path class="st15" d="M1708.5 2766.1c3.4-5.1 7.9-12 13.4-20.4"/><path class="st16" d="M1722.5 2744.8c126.9-192.7 785-1190.6 795.7-1172.4 11.2 19 133.9 1185.9 148.1 1321.2"/><path class="st4" d="M2666.4 2893.7c.9 8.3 1.3 12.8 1.3 12.8l6.1-11.3"/><path class="st17" d="M2673.8 2895.2l12-22"/><path class="st18" d="M2686.3 2872.3l248.8-456.3"/><path class="st4" d="M2935.1 2416l6.1-11.3 9 9.2"/><path class="st19" d="M2950.2 2413.9l17.6 17.8"/><path class="st20" d="M2968.5 2432.5c4.4 5.6 9.3 10.5 14.3 15.4 49.4 49.4 94.8 95.7 144.1 145.1 39.5 40.5 76 78 115.5 118.4 11.8 11.8 22.7 22.7 33.6 34.5 67.1 67.1 129.3 130.3 195.4 198.4 58.2 58.2 112.5 115.5 170 172"/><path class="st3" d="M36.7 75.8L72 161.3l10.6-39 39.2-10.1z"/><path class="st0" d="M1844.2 1862.3l9.2 9"/><path class="st1" d="M1853.4 1871.3l17.4 17.3"/><path class="st2" d="M1871.5 1889.2c40.3 40.5 79.8 79.9 121.3 120.4 13.8 12.8 25.7 24.7 39.5 37.5 6.9 6.9 12.8 12.8 18.8 19.7 500.4 495.5 972.2 957.4 1472.6 1452.9 3 2 5.9 3.9 7.9 5.9 30.6 32.6 62.2 62.2 93 92.6"/><path class="st3" d="M1814.5 1832.9l25 58.6 6.9-27 26.9-7.3z"/><path class="st0" d="M1965.7 949.4l9.2 9"/><path class="st1" d="M1974.9 958.4l17.5 17.2"/><path class="st2" d="M1993.1 976.3c550.5 541.8 1098.3 1083.7 1648 1625.1"/><path class="st3" d="M1936 920l25 58.5 7-27 26.8-7.3z"/><circle class="st3" cx="950.5" cy="994.7" r="29"/><circle class="st3" cx="1205.6" cy="770.2" r="29"/><circle class="st3" cx="1268.9" cy="1453.8" r="29"/><path class="st3" d="M1714.5 2834.4c23.6 31-11.4 66.1-42.5 42.5-23.6-31 11.5-66.1 42.5-42.5z"/><circle class="st3" cx="2669" cy="2998.3" r="29"/><circle class="st3" cx="2936.3" cy="2503.7" r="29"/><circle class="st3" cx="2509.1" cy="1589.8" r="29"/></svg>